<?xml version="1.0" standalone="no"?>
<!DOCTYPE svg PUBLIC "-//W3C//DTD SVG 20010904//EN"
 "http://www.w3.org/TR/2001/REC-SVG-20010904/DTD/svg10.dtd">
<svg version="1.0" xmlns="http://www.w3.org/2000/svg"
 width="700.000000pt" height="700.000000pt" viewBox="0 0 700.000000 700.000000"
 preserveAspectRatio="xMidYMid meet">
<metadata>
Created by potrace 1.14, written by Peter Selinger 2001-2017
</metadata>
<g transform="translate(0.000000,700.000000) scale(0.100000,-0.100000)"
fill="#000000" stroke="none">
<path d="M6674 6981 c-4 -9 -9 -25 -11 -36 -6 -40 -9 -50 -21 -70 -10 -18 -14
-18 -24 -5 -8 9 -27 14 -46 13 -34 -1 -59 -13 -30 -13 11 0 14 -6 11 -20 -7
-25 17 -79 38 -85 8 -3 21 -21 29 -40 10 -26 17 -32 26 -24 15 13 25 -1 18
-28 -5 -16 -14 -20 -51 -21 -25 0 -49 -5 -53 -11 -4 -8 -13 -3 -25 13 -16 20
-22 23 -34 13 -12 -10 -13 -9 -7 1 6 10 1 11 -19 6 -14 -3 -25 -2 -24 2 1 5 1
15 0 21 -2 18 -51 -6 -51 -24 0 -8 -4 -12 -9 -9 -5 3 -7 14 -4 24 2 10 -7 29
-21 45 -14 16 -26 36 -26 45 0 24 -39 -43 -47 -79 -7 -39 -30 -37 -41 3 -4 17
-12 33 -18 35 -13 4 -44 -71 -44 -107 0 -17 -5 -30 -10 -30 -6 0 -23 -13 -38
-28 -15 -16 -33 -27 -39 -25 -14 5 -29 -37 -16 -46 12 -8 12 -54 1 -62 -5 -3
-4 -16 1 -30 5 -13 10 -19 10 -12 1 7 10 9 24 5 19 -5 20 -4 9 11 -19 22 -6
42 16 25 13 -11 15 -10 10 15 -4 19 -1 27 10 27 11 0 12 3 3 14 -14 17 2 32
21 20 8 -5 9 0 5 15 -5 20 -2 22 19 18 18 -3 24 0 24 13 0 10 -6 23 -14 29
-12 10 -12 16 0 41 15 29 15 29 34 10 11 -11 20 -27 20 -35 0 -8 9 -15 20 -15
11 0 20 -4 20 -10 0 -5 -4 -10 -9 -10 -9 0 -27 -44 -34 -85 -5 -27 -16 -57
-28 -75 -5 -8 -12 -23 -15 -32 -4 -10 -15 -18 -25 -18 -11 0 -19 -4 -19 -9 0
-5 -9 -7 -20 -4 -15 4 -20 0 -20 -16 0 -23 -15 -29 -24 -8 -2 6 -3 -6 0 -28 4
-37 3 -38 -10 -21 -8 10 -19 15 -24 12 -6 -3 -18 -3 -28 1 -16 6 -16 7 1 20
26 18 10 29 -21 14 -32 -14 -33 -13 -40 35 -9 61 -13 69 -26 56 -15 -15 -48
-16 -48 -2 0 6 4 10 8 10 4 0 6 16 4 35 -2 19 -8 35 -13 35 -5 0 -9 9 -9 20 0
28 -20 25 -21 -2 0 -13 -3 -17 -6 -10 -7 17 -19 15 -21 -3 -1 -8 -3 -22 -4
-30 -2 -17 -10 -19 -24 -5 -7 7 -14 -6 -23 -40 -7 -27 -16 -50 -20 -50 -4 0
-13 18 -20 40 -14 48 -27 51 -36 10 -7 -30 -25 -51 -25 -29 0 7 -9 3 -21 -9
-22 -24 -43 -20 -35 6 3 10 2 31 -3 47 l-8 30 -7 -32 c-4 -18 -14 -33 -21 -33
-7 0 -18 -14 -24 -31 -6 -17 -15 -28 -21 -24 -6 4 -10 -7 -11 -27 l-1 -33 -23
49 -23 48 -18 -56 c-19 -60 -28 -69 -37 -34 -5 17 -9 19 -21 9 -12 -10 -15 -9
-19 6 -4 16 -6 15 -12 -4 -4 -13 -11 -23 -15 -23 -4 0 -7 -8 -6 -17 0 -10 -6
-19 -14 -19 -8 -1 -20 -2 -27 -3 -15 -1 -56 -71 -55 -93 1 -23 -25 -30 -31 -8
-9 34 -41 12 -63 -43 -24 -58 -39 -69 -50 -35 -4 13 -15 29 -25 36 -11 7 -19
20 -19 28 0 27 -25 9 -37 -27 -7 -19 -12 -30 -12 -24 -2 18 -24 -14 -26 -37
-1 -13 -3 -27 -4 -32 0 -4 -8 -6 -16 -2 -8 3 -15 0 -15 -7 0 -16 -37 -20 -46
-5 -4 6 -11 25 -15 42 -6 29 -7 29 -8 5 -1 -25 -46 -129 -56 -129 -3 0 -10 12
-15 26 -10 26 -30 25 -30 -2 0 -18 -24 -13 -26 4 -3 26 -5 26 -20 -7 -8 -19
-12 -41 -9 -49 3 -8 -3 -16 -15 -19 -10 -3 -22 -14 -25 -24 -9 -29 -32 -23
-38 10 -7 35 -35 48 -53 24 -8 -11 -9 -22 -3 -28 13 -14 11 -25 -6 -25 -8 0
-20 -10 -26 -22 -19 -35 -36 -49 -53 -42 -11 4 -17 -4 -24 -28 -11 -42 -22
-42 -38 2 l-12 35 -7 -32 c-4 -18 -11 -33 -15 -33 -16 0 -41 -85 -80 -270 -23
-107 -64 -294 -90 -415 -27 -121 -48 -221 -47 -222 2 -1 62 -11 135 -22 385
-59 642 -176 862 -393 146 -142 231 -286 280 -468 34 -128 39 -382 12 -545
-39 -230 -112 -413 -239 -608 -315 -480 -852 -747 -1502 -747 l-139 0 -16 -72
c-9 -40 -36 -165 -59 -278 l-44 -205 -386 -3 c-441 -3 -398 -14 -371 98 25
107 94 434 94 448 0 8 -17 12 -50 12 -28 0 -94 5 -148 11 -407 44 -690 190
-873 450 -150 212 -211 417 -213 704 -1 341 72 605 233 838 68 97 243 276 303
308 10 5 15 16 12 24 -5 11 -2 13 10 9 9 -3 44 12 85 38 69 42 91 66 51 53
-18 -6 -20 -2 -20 34 0 22 -4 43 -10 46 -6 3 -10 14 -10 23 0 14 2 15 10 2 13
-20 24 -6 12 16 -9 16 -11 16 -23 -4 -8 -12 -20 -22 -28 -22 -11 0 -10 -4 4
-20 9 -10 15 -26 12 -34 -3 -8 -2 -16 3 -18 5 -2 7 -13 4 -25 l-6 -22 -24 24
c-14 14 -21 30 -18 39 3 9 1 16 -4 16 -6 0 -12 10 -14 22 -2 12 -9 23 -16 26
-9 3 -11 -3 -6 -24 6 -22 4 -26 -9 -21 -18 7 -13 -17 10 -44 17 -20 6 -31 -19
-18 -30 16 -33 3 -4 -16 14 -10 26 -22 26 -28 0 -7 -4 -7 -12 1 -7 7 -26 12
-43 12 -38 0 -45 32 -12 48 l22 11 -23 0 c-30 1 -39 28 -16 47 18 14 18 15 -3
9 -17 -5 -23 -2 -23 10 0 15 -1 15 -16 0 -15 -15 -15 -17 1 -35 10 -11 15 -21
12 -21 -4 -1 -11 -3 -17 -4 -5 -1 -18 -3 -27 -5 -15 -1 -15 -3 -3 -7 22 -9 42
-32 36 -42 -17 -27 -104 11 -94 41 4 11 -14 38 -25 38 -2 0 -2 -11 0 -23 3
-14 -2 -31 -11 -40 -18 -17 -21 -47 -6 -47 6 0 10 -7 10 -16 0 -15 -2 -15 -26
0 -24 16 -25 16 -22 0 2 -13 -7 -20 -36 -26 -21 -5 -41 -6 -44 -4 -6 7 60 66
74 66 7 0 14 6 17 14 4 11 -2 12 -31 5 -73 -18 -92 -21 -92 -17 0 7 94 73 100
70 2 -2 6 2 9 9 4 12 -12 10 -53 -6 -15 -7 -17 -5 -11 13 4 15 2 22 -7 23 -7
0 -3 4 10 9 33 14 27 28 -10 24 -18 -2 -35 1 -40 8 -11 19 -10 28 5 28 7 0 20
9 30 20 19 23 23 40 5 22 -18 -18 -45 -15 -52 6 -3 9 -9 23 -12 30 -4 8 0 10
11 5 15 -5 16 -3 7 14 -6 11 -8 23 -5 27 3 3 3 6 -1 6 -4 0 -20 -14 -36 -31
-26 -30 -30 -31 -45 -15 -14 13 -14 16 -2 16 8 0 17 7 21 15 7 18 -15 20 -32
3 -9 -9 -15 -9 -23 -1 -8 8 -5 14 10 22 24 13 27 35 9 73 -13 28 -48 55 -48
38 0 -5 -7 -10 -15 -10 -8 0 -15 -4 -15 -10 0 -5 6 -10 14 -10 9 0 14 -9 13
-20 -1 -18 -3 -18 -19 -3 -20 18 -53 10 -44 -12 3 -8 -2 -19 -11 -24 -15 -8
-15 -11 0 -34 18 -29 6 -41 -26 -25 -22 11 -22 0 0 -24 15 -17 15 -18 -1 -18
-13 0 -16 -5 -11 -22 6 -17 4 -20 -11 -14 -11 4 -5 -6 14 -23 35 -31 30 -45
-13 -37 -23 4 -25 2 -25 -29 0 -22 6 -38 18 -44 15 -9 13 -10 -9 -11 -15 0
-29 -7 -33 -15 -3 -8 -16 -15 -28 -15 l-23 1 23 18 c26 23 29 33 5 24 -13 -5
-15 -2 -10 11 4 10 3 15 -3 11 -18 -11 -10 7 11 26 29 25 17 40 -24 28 -17 -5
-34 -9 -36 -9 -2 0 10 12 26 28 16 15 35 35 43 45 12 16 9 15 -23 -3 -20 -12
-37 -17 -37 -11 0 6 -8 8 -17 4 -10 -3 0 13 22 37 32 36 35 41 13 27 -35 -22
-38 -21 -38 3 0 11 7 20 16 20 8 0 12 5 9 10 -3 6 -15 10 -26 10 -10 0 -19 5
-19 10 0 6 4 10 10 10 13 0 50 32 50 44 0 5 -8 2 -18 -7 -33 -30 -45 -20 -23
17 24 38 26 49 9 44 -7 -3 -13 -12 -13 -21 0 -9 -4 -16 -10 -14 -5 1 -9 10 -8
20 2 14 0 15 -17 5 -23 -14 -38 -4 -22 15 9 10 8 17 0 25 -12 12 -7 14 18 11
8 -1 24 22 24 34 0 4 -9 7 -21 7 -15 0 -19 4 -15 15 21 52 21 51 3 36 -15 -12
-19 -12 -32 5 -12 16 -17 17 -34 6 -26 -15 -26 -12 0 32 21 36 13 50 -11 21
-7 -8 -19 -15 -27 -15 -11 0 -11 4 -2 21 9 18 8 24 -5 31 -12 7 -14 14 -6 28
7 12 6 20 -1 22 -5 2 -11 12 -13 23 -2 12 -11 20 -22 20 -12 0 -18 -6 -16 -17
2 -12 -4 -16 -22 -15 -34 3 -34 16 -1 37 15 10 22 20 17 24 -6 3 -13 2 -17 -4
-12 -19 -25 -10 -20 13 3 13 -3 31 -14 45 -16 19 -23 21 -46 12 -38 -14 -52
-12 -29 4 28 21 7 40 -29 27 -35 -14 -47 10 -23 48 6 9 0 20 -20 36 l-28 22
24 8 c19 6 21 9 8 16 -20 11 -80 0 -72 -13 3 -5 12 -7 20 -4 20 8 17 -11 -3
-24 -17 -9 -17 -11 2 -27 29 -25 37 -50 19 -57 -22 -8 -72 5 -78 21 -5 11 -10
11 -27 3 -31 -17 -33 -6 -4 21 35 34 31 42 -11 24 -46 -19 -47 -19 -32 5 7 11
20 20 29 20 9 0 20 7 23 16 5 13 2 15 -14 11 -22 -6 -26 3 -8 21 18 18 4 23
-31 11 -43 -15 -47 -7 -13 27 33 33 45 61 32 69 -6 4 -10 1 -10 -4 0 -6 -7
-11 -15 -11 -8 0 -15 -4 -15 -10 0 -5 -7 -10 -15 -10 -8 0 -15 5 -15 10 0 6 5
10 10 10 6 0 10 7 10 16 0 10 6 14 14 11 8 -3 17 1 20 9 3 7 2 13 -2 13 -24
-4 -34 3 -29 20 3 14 0 17 -14 14 -11 -3 -19 0 -19 6 0 6 7 11 16 11 12 0 14
3 6 13 -6 7 -8 24 -5 37 5 17 3 21 -7 15 -7 -5 -26 -9 -41 -10 -22 -2 -25 0
-16 10 7 7 16 12 20 12 5 -1 13 8 18 21 6 16 5 21 -3 16 -8 -5 -9 1 -4 20 6
24 5 26 -13 14 -20 -12 -44 -3 -25 10 13 8 25 52 15 52 -4 0 -12 -5 -18 -11
-8 -8 -13 -7 -18 1 -4 7 -1 16 6 21 11 7 10 9 -3 9 -20 0 -23 -13 -8 -40 7
-13 7 -21 0 -25 -5 -3 -10 0 -10 8 0 16 -24 30 -34 20 -10 -11 -6 -23 7 -23 9
0 14 -12 15 -32 l1 -33 -18 24 c-18 24 -18 24 -17 2 0 -12 6 -25 12 -29 15
-10 25 -52 11 -52 -6 0 -19 8 -29 17 -17 15 -20 15 -28 3 -13 -20 -12 -30 1
-30 5 0 7 5 4 10 -3 6 -2 10 3 10 5 0 9 -14 8 -30 -1 -20 -5 -29 -13 -25 -20
7 -15 -10 7 -30 24 -21 26 -37 5 -29 -22 9 -18 -19 5 -36 11 -8 20 -20 20 -26
0 -7 5 -14 11 -16 6 -2 10 -12 8 -22 -4 -17 -6 -17 -30 3 -15 11 -29 18 -32
15 -3 -3 -14 -1 -25 5 -16 8 -25 7 -42 -7 -20 -16 -21 -22 -12 -55 7 -25 7
-37 0 -37 -6 0 -8 -6 -5 -14 6 -16 -19 -30 -28 -16 -4 6 -12 10 -18 10 -8 -1
-7 -5 3 -13 8 -7 20 -26 26 -44 12 -31 11 -31 -13 -22 -34 13 -36 12 -19 -13
20 -29 21 -44 1 -28 -25 20 -27 5 -4 -24 l21 -26 -29 12 c-15 6 -34 17 -42 22
-10 8 -15 8 -18 -1 -6 -18 -33 -16 -33 1 0 8 5 18 10 21 6 3 10 11 10 16 0 6
-5 7 -11 4 -5 -4 -3 10 5 30 21 49 21 50 -11 21 -34 -32 -44 -24 -13 9 26 28
24 30 -17 15 l-28 -11 28 26 c33 32 35 48 4 36 -20 -8 -22 -6 -22 28 0 20 6
42 13 50 18 19 6 27 -14 10 -16 -13 -17 -11 -10 24 5 24 4 37 -2 33 -6 -3 -12
1 -16 9 -12 33 -26 14 -19 -27 6 -40 5 -42 -11 -29 -21 18 -33 7 -16 -14 14
-17 23 -65 13 -65 -4 0 -15 7 -25 17 -17 15 -18 15 -18 -4 0 -10 6 -28 14 -38
17 -23 10 -46 -11 -38 -12 5 -14 1 -8 -17 5 -15 4 -20 -4 -16 -14 9 -14 3 1
-29 6 -14 16 -25 21 -25 6 0 8 -3 5 -6 -4 -3 -15 -1 -25 5 -15 8 -20 7 -20 -5
0 -7 7 -14 15 -14 9 0 12 -3 9 -7 -4 -3 0 -15 10 -25 26 -29 1 -21 -40 13 -34
28 -53 29 -25 1 11 -11 38 -78 38 -94 0 -13 -21 -9 -36 7 -9 8 -13 19 -9 24 3
5 1 12 -5 16 -7 4 -10 -830 -10 -2594 l0 -2601 263 4 c144 2 269 3 277 3 8 0
271 -1 585 -3 435 -2 571 0 577 9 6 9 8 9 8 0 0 -10 39 -13 163 -13 108 0 157
4 147 10 -13 8 -12 10 3 10 9 0 17 -4 17 -10 0 -7 833 -10 2480 -10 l2480 0 0
3500 0 3500 -159 -1 c-138 -1 -161 -3 -167 -18z m276 -43 c0 -12 -4 -16 -12
-12 -6 4 -17 -1 -25 -11 -15 -21 -18 -3 -4 24 13 23 41 23 41 -1z m-197 -92
c17 -13 16 -14 -2 -19 -22 -5 -31 0 -31 20 0 16 10 16 33 -1z m-118 -11 c-16
-50 -14 -48 -32 -34 -15 12 -16 12 -9 -6 6 -18 6 -19 -9 -4 -21 20 -9 52 16
46 11 -3 19 -1 19 4 0 5 4 9 10 9 5 0 7 -7 5 -15z m41 -73 c-22 -5 -30 3 -21
18 5 8 11 7 22 -2 15 -12 14 -13 -1 -16z m70 -40 c-9 -8 -26 10 -26 26 1 15 2
15 15 -2 8 -11 13 -21 11 -24z m-276 -86 c0 -3 -4 -8 -10 -11 -5 -3 -10 -1
-10 4 0 6 5 11 10 11 6 0 10 -2 10 -4z m140 -6 c0 -5 -7 -10 -15 -10 -8 0 -15
5 -15 10 0 6 7 10 15 10 8 0 15 -4 15 -10z m-156 -32 c15 -18 31 -39 37 -45 5
-7 6 -13 1 -13 -11 0 -62 50 -62 60 0 4 -7 7 -16 6 -9 0 -19 5 -21 12 -9 26
36 11 61 -20z m-229 -28 c3 -5 1 -10 -4 -10 -6 0 -11 5 -11 10 0 6 2 10 4 10
3 0 8 -4 11 -10z m115 -64 c0 -5 -7 -3 -15 4 -8 7 -12 17 -9 22 7 10 24 -9 24
-26z m-364 -128 c8 -8 -8 -12 -38 -9 -22 3 -23 -12 -4 -32 13 -12 13 -18 0
-42 -13 -26 -13 -62 1 -85 3 -5 1 -10 -5 -10 -6 0 -9 -8 -6 -17 3 -10 1 -25
-4 -33 -7 -11 -10 -11 -10 -2 0 7 -4 10 -10 7 -5 -3 -10 -19 -10 -36 0 -16 -4
-29 -10 -29 -5 0 -16 -15 -24 -32 -14 -31 -14 -32 -15 -8 -2 24 -2 24 -14 5
-6 -11 -12 -24 -12 -30 -1 -5 -6 -9 -13 -7 -9 1 -10 -6 -6 -23 5 -22 4 -24
-12 -18 -26 9 -31 18 -32 63 -2 31 1 38 13 34 20 -8 45 13 38 32 -3 8 -1 14 5
14 5 0 12 -7 16 -15 9 -24 26 -17 26 9 0 14 5 28 10 31 6 4 8 15 5 26 -4 13
-2 19 8 19 17 0 27 21 27 59 0 15 5 32 12 39 9 9 9 17 -1 36 -17 32 -1 62 32
61 14 0 29 -3 33 -7z m-332 -23 c-4 -8 -8 -15 -10 -15 -2 0 -4 7 -4 15 0 8 4
15 10 15 5 0 7 -7 4 -15z m362 -60 c16 -8 25 -15 20 -15 -5 0 -1 -9 9 -20 18
-19 17 -20 -3 -20 -11 0 -24 -4 -27 -10 -3 -5 -11 -10 -16 -10 -6 0 -8 4 -5 9
4 5 -7 12 -24 16 -16 4 -30 11 -30 17 0 6 6 8 14 5 8 -3 22 3 31 13 13 14 13
19 3 23 -7 3 -10 6 -7 6 4 1 20 -6 35 -14z m-41 -85 c3 -5 1 -10 -4 -10 -6 0
-11 5 -11 10 0 6 2 10 4 10 3 0 8 -4 11 -10z m-994 -253 c-1 -12 -15 -9 -19 4
-3 6 1 10 8 8 6 -3 11 -8 11 -12z m-4435 -314 c-7 -7 -26 7 -26 19 0 6 6 6 15
-2 9 -7 13 -15 11 -17z m94 18 c0 -6 -4 -13 -10 -16 -5 -3 -10 1 -10 9 0 9 5
16 10 16 6 0 10 -4 10 -9z m-45 -50 c3 -5 1 -12 -5 -16 -5 -3 -10 1 -10 9 0
18 6 21 15 7z m65 -41 c0 -5 -2 -10 -4 -10 -3 0 -8 5 -11 10 -3 6 -1 10 4 10
6 0 11 -4 11 -10z m-25 -96 c-12 -18 -28 -20 -33 -5 -2 6 3 11 12 11 9 0 16 5
16 10 0 6 -7 10 -15 10 -8 0 -15 7 -15 15 0 13 5 12 22 -5 17 -15 20 -25 13
-36z m-161 -20 c7 -17 -2 -18 -37 -1 -15 6 -27 17 -27 24 0 17 57 -3 64 -23z
m83 4 c-3 -8 -6 -5 -6 6 -1 11 2 17 5 13 3 -3 4 -12 1 -19z m4833 -18 c0 -5
-2 -10 -4 -10 -3 0 -8 5 -11 10 -3 6 -1 10 4 10 6 0 11 -4 11 -10z m-4907 -37
c-7 -2 -19 -2 -25 0 -7 3 -2 5 12 5 14 0 19 -2 13 -5z m4873 -7 c7 -19 -10
-79 -24 -84 -7 -2 -10 2 -6 12 4 11 0 16 -12 17 -11 0 -14 3 -6 6 6 2 12 15
12 27 0 35 25 50 36 22z m-5220 -43 c-10 -10 -19 5 -10 18 6 11 8 11 12 0 2
-7 1 -15 -2 -18z m5263 -10 c0 -10 3 -30 7 -45 8 -34 -11 -38 -20 -5 -9 33 -7
67 3 67 6 0 10 -8 10 -17z m-4724 -13 c3 -5 -3 -10 -15 -10 -12 0 -18 5 -15
10 3 6 10 10 15 10 5 0 12 -4 15 -10z m34 -54 c-2 -2 -15 -7 -29 -10 l-25 -7
25 15 c21 12 42 14 29 2z m-479 -6 c0 -5 -7 -10 -16 -10 -8 0 -12 5 -9 10 3 6
10 10 16 10 5 0 9 -4 9 -10z m420 0 c0 -5 -4 -10 -10 -10 -5 0 -10 5 -10 10 0
6 5 10 10 10 6 0 10 -4 10 -10z m4746 -27 c34 6 50 -23 21 -38 -12 -7 -21 -17
-19 -23 2 -14 -8 -15 -24 -4 -15 10 -25 57 -17 79 7 17 8 17 11 0 3 -14 10
-18 28 -14z m-4826 7 c0 -5 -5 -10 -11 -10 -5 0 -7 5 -4 10 3 6 8 10 11 10 2
0 4 -4 4 -10z m-234 -65 c14 -22 14 -26 1 -40 -9 -8 -18 -15 -20 -15 -8 0 -15
39 -8 43 3 2 -1 2 -9 -1 -8 -2 -28 -8 -45 -13 l-30 -8 28 22 c15 13 27 31 27
40 0 15 4 16 20 7 11 -6 27 -22 36 -35z m296 33 c-9 -9 -15 -9 -24 0 -9 9 -7
12 12 12 19 0 21 -3 12 -12z m358 2 c0 -5 -6 -10 -14 -10 -8 0 -18 5 -21 10
-3 6 3 10 14 10 12 0 21 -4 21 -10z m-30 -29 c0 -5 -9 -11 -20 -14 -13 -3 -20
0 -20 9 0 8 9 14 20 14 11 0 20 -4 20 -9z m4492 -5 c7 4 8 2 4 -4 -11 -18 -26
-14 -25 6 0 10 3 12 6 4 2 -6 10 -9 15 -6z m-77 -26 c3 -5 2 -10 -4 -10 -5 0
-13 5 -16 10 -3 6 -2 10 4 10 5 0 13 -4 16 -10z m-4385 -19 c0 -5 -7 -11 -15
-15 -15 -5 -20 5 -8 17 9 10 23 9 23 -2z m-680 -55 c-8 -8 -13 -7 -20 4 -12
20 -1 33 16 19 11 -9 12 -15 4 -23z m750 30 c0 -3 -4 -8 -10 -11 -5 -3 -10 -1
-10 4 0 6 5 11 10 11 6 0 10 -2 10 -4z m-775 -46 c3 -5 2 -10 -4 -10 -5 0 -13
5 -16 10 -3 6 -2 10 4 10 5 0 13 -4 16 -10z m715 -4 c0 -3 -4 -8 -10 -11 -5
-3 -10 -1 -10 4 0 6 5 11 10 11 6 0 10 -2 10 -4z m70 -4 c0 -13 -12 -22 -22
-16 -10 6 -1 24 13 24 5 0 9 -4 9 -8z m-90 -43 c0 -5 -4 -9 -10 -9 -5 0 -10 7
-10 16 0 8 5 12 10 9 6 -3 10 -10 10 -16z m265 -89 c-3 -5 -12 -10 -18 -10 -7
0 -6 4 3 10 19 12 23 12 15 0z m-25 -50 c0 -5 -4 -10 -9 -10 -6 0 -13 5 -16
10 -3 6 1 10 9 10 9 0 16 -4 16 -10z m380 -139 c0 -5 -6 -14 -14 -20 -16 -13
-32 2 -21 19 8 12 35 13 35 1z m-10 -75 c0 -3 -4 -8 -10 -11 -5 -3 -10 -1 -10
4 0 6 5 11 10 11 6 0 10 -2 10 -4z m110 -20 c0 -11 -19 -15 -25 -6 -3 5 1 10
9 10 9 0 16 -2 16 -4z m3415 -36 c3 -5 1 -10 -4 -10 -6 0 -11 5 -11 10 0 6 2
10 4 10 3 0 8 -4 11 -10z m755 -95 c0 -5 -5 -3 -10 5 -5 8 -10 20 -10 25 0 6
5 3 10 -5 5 -8 10 -19 10 -25z m331 -43 c-7 -2 -3 -12 10 -23 l22 -19 -34 -1
c-33 0 -33 -1 -9 -11 45 -18 54 -24 59 -39 3 -12 2 -12 -11 -1 -10 8 -19 9
-22 4 -3 -6 1 -12 9 -16 8 -3 15 -10 15 -16 0 -14 -27 -13 -33 3 -2 6 -9 -5
-16 -26 -7 -20 -17 -35 -22 -32 -5 4 -9 -1 -9 -9 0 -9 5 -16 10 -16 16 0 12
-17 -6 -24 -9 -3 -12 -2 -9 5 4 5 -3 19 -15 29 -16 14 -20 25 -15 37 11 26 16
45 18 70 1 12 9 31 19 42 12 14 13 22 5 30 -8 8 -8 11 1 11 7 0 12 7 12 16 0
14 2 14 16 3 11 -9 12 -15 5 -17z m-51 -42 c0 -5 -4 -10 -9 -10 -6 0 -13 5
-16 10 -3 6 1 10 9 10 9 0 16 -4 16 -10z m-4707 -7 c-7 -2 -19 -2 -25 0 -7 3
-2 5 12 5 14 0 19 -2 13 -5z m-29 -19 c20 -8 11 -24 -15 -24 -19 0 -25 11 -12
23 8 8 8 8 27 1z m592 -18 c18 -19 18 -32 -1 -40 -11 -4 -15 0 -13 11 2 10 -4
18 -12 19 -31 2 -35 5 -20 14 20 13 29 12 46 -4z m121 -22 c2 -6 -8 -14 -22
-16 -28 -6 -27 -6 -19 17 7 17 35 17 41 -1z m4303 -13 c0 -15 -19 -23 -38 -16
-14 5 -14 7 -2 15 19 12 40 13 40 1z m75 -21 c3 -5 2 -10 -4 -10 -5 0 -13 5
-16 10 -3 6 -2 10 4 10 5 0 13 -4 16 -10z m-4630 -59 c-3 -2 -14 4 -26 15 -19
17 -20 19 -2 31 16 12 19 11 25 -14 4 -15 5 -29 3 -32z m35 49 c0 -5 -5 -10
-11 -10 -5 0 -7 5 -4 10 3 6 8 10 11 10 2 0 4 -4 4 -10z m96 -15 c18 -15 18
-15 -10 -13 -16 2 -31 9 -34 16 -5 17 20 15 44 -3z m3981 9 c-3 -3 -12 -4 -19
-1 -8 3 -5 6 6 6 11 1 17 -2 13 -5z m-308 -69 c0 -5 -6 -1 -14 9 -8 11 -15 24
-15 30 0 5 7 1 15 -10 8 -10 14 -23 14 -29z m411 13 c0 -15 -15 -8 -28 12 -12
19 -11 20 8 8 11 -7 20 -16 20 -20z m-4110 12 c0 -5 -2 -10 -4 -10 -3 0 -8 5
-11 10 -3 6 -1 10 4 10 6 0 11 -4 11 -10z m3930 6 c0 -3 -4 -8 -10 -11 -5 -3
-10 -1 -10 4 0 6 5 11 10 11 6 0 10 -2 10 -4z m-60 -21 c7 -8 23 -15 36 -15
13 0 24 -4 24 -9 0 -15 -42 -25 -50 -12 -3 7 -13 10 -21 8 -8 -2 -11 -2 -6 0
13 8 7 23 -9 23 -8 0 -12 5 -9 10 9 14 21 12 35 -5z m105 -15 c-3 -6 1 -13 9
-16 9 -3 16 -15 16 -25 0 -16 -3 -17 -27 -7 -16 7 -30 13 -31 14 -10 6 11 44
24 44 8 0 12 -5 9 -10z m40 0 c3 -5 2 -10 -4 -10 -5 0 -13 5 -16 10 -3 6 -2
10 4 10 5 0 13 -4 16 -10z m35 -25 c0 -8 5 -15 12 -15 6 0 0 -13 -15 -28 -15
-15 -27 -35 -27 -43 1 -7 7 -2 16 13 14 27 40 30 42 5 0 -7 4 -23 8 -36 7 -22
5 -23 -19 -17 -26 6 -39 -8 -15 -16 6 -2 9 -10 6 -18 -3 -10 -10 -8 -29 11
-13 13 -28 23 -33 21 -5 -2 -6 4 -2 13 3 8 9 22 12 30 4 10 0 15 -10 15 -9 0
-16 5 -16 10 0 6 8 10 19 10 23 0 48 26 30 32 -7 2 -9 10 -5 16 10 17 26 15
26 -3z m-4150 -5 c0 -5 -4 -10 -10 -10 -5 0 -10 5 -10 10 0 6 5 10 10 10 6 0
10 -4 10 -10z m3735 -20 c3 -5 1 -10 -4 -10 -6 0 -11 5 -11 10 0 6 2 10 4 10
3 0 8 -4 11 -10z m259 -6 c16 -16 13 -34 -5 -34 -6 0 -8 4 -5 9 4 5 -3 7 -14
4 -12 -3 -20 0 -20 6 0 7 -4 9 -10 6 -5 -3 -10 1 -10 9 0 21 44 21 64 0z
m-4284 -8 c0 -3 -4 -8 -10 -11 -5 -3 -10 -1 -10 4 0 6 5 11 10 11 6 0 10 -2
10 -4z m4350 -6 c0 -13 -28 -25 -38 -16 -3 4 0 11 8 16 20 13 30 12 30 0z
m-263 -26 c-3 -3 -12 -4 -19 -1 -8 3 -5 6 6 6 11 1 17 -2 13 -5z m263 -29 c8
-11 18 -30 21 -42 6 -19 4 -21 -15 -14 -25 10 -66 -2 -48 -13 7 -4 12 -11 12
-15 0 -9 -101 -34 -108 -26 -3 3 2 5 11 5 19 0 57 34 57 51 0 7 -11 8 -31 4
-29 -7 -30 -6 -20 14 7 12 9 21 5 21 -4 0 0 8 9 18 23 25 87 24 107 -3z m-140
-55 c0 -5 -5 -10 -11 -10 -5 0 -7 5 -4 10 3 6 8 10 11 10 2 0 4 -4 4 -10z
m184 -35 c-4 -8 -8 -15 -10 -15 -2 0 -4 7 -4 15 0 8 4 15 10 15 5 0 7 -7 4
-15z m-134 -76 c0 -15 -18 -19 -23 -6 -3 8 1 14 9 14 8 0 14 -4 14 -8z m505 1
c-3 -5 -12 -10 -18 -10 -7 0 -6 4 3 10 19 12 23 12 15 0z m551 -165 c18 -13
18 -14 -4 -8 -12 3 -25 9 -28 14 -8 14 10 11 32 -6z m-6116 -1835 c0 -5 -2
-10 -4 -10 -3 0 -8 5 -11 10 -3 6 -1 10 4 10 6 0 11 -4 11 -10z m70 -45 c7 -8
8 -15 2 -15 -5 0 -15 7 -22 15 -7 8 -8 15 -2 15 5 0 15 -7 22 -15z m70 -30 c0
-8 -2 -15 -4 -15 -2 0 -6 7 -10 15 -3 8 -1 15 4 15 6 0 10 -7 10 -15z m31 -14
c-11 -7 -10 -11 5 -20 11 -6 14 -11 8 -11 -6 0 -17 6 -23 13 -11 14 -5 27 13
27 6 0 5 -4 -3 -9z m59 -46 c7 -8 8 -15 2 -15 -5 0 -15 7 -22 15 -7 8 -8 15
-2 15 5 0 15 -7 22 -15z m44 -20 c-4 -8 -7 -15 -9 -15 -2 0 -5 7 -9 15 -3 9 0
15 9 15 9 0 12 -6 9 -15z m151 -19 c8 -7 12 -16 9 -19 -10 -9 -34 4 -34 19 0
18 8 18 25 0z m-495 -21 c0 -16 -55 -22 -64 -7 -3 5 9 6 26 4 21 -3 29 -1 24
7 -4 6 -2 11 3 11 6 0 11 -7 11 -15z m99 -1 c1 -1 0 -8 -4 -14 -5 -8 -11 -8
-19 -1 -7 6 -16 8 -19 5 -3 -3 -11 -3 -17 1 -18 11 10 26 35 19 11 -4 22 -8
24 -10z m45 -5 c-7 -11 -34 -12 -34 -1 0 14 11 21 26 15 8 -3 11 -9 8 -14z
m36 0 c0 -5 -4 -9 -10 -9 -5 0 -10 7 -10 16 0 8 5 12 10 9 6 -3 10 -10 10 -16z
m130 2 c0 -10 -22 -31 -33 -31 -4 0 -6 4 -3 9 3 5 -5 12 -19 15 -39 10 -29 22
15 18 22 -2 40 -7 40 -11z m260 9 c0 -5 -7 -10 -15 -10 -8 0 -15 5 -15 10 0 6
7 10 15 10 8 0 15 -4 15 -10z m116 -2 c5 -7 2 -9 -8 -5 -9 3 -21 0 -27 -6 -8
-8 -11 -8 -11 0 0 10 14 20 32 22 4 1 10 -4 14 -11z m554 -18 c0 -6 -4 -10
-10 -10 -5 0 -10 5 -10 11 0 5 -4 7 -10 4 -5 -3 -10 1 -10 10 0 13 4 14 20 5
11 -6 20 -15 20 -20z m120 20 c0 -5 -2 -10 -4 -10 -3 0 -8 5 -11 10 -3 6 -1
10 4 10 6 0 11 -4 11 -10z m97 -10 c3 -10 2 -11 -4 -4 -4 7 -17 14 -28 17 -16
5 -15 5 4 4 14 -1 26 -9 28 -17z m77 4 c3 -9 4 -20 1 -25 -3 -4 2 -20 11 -34
14 -22 14 -25 1 -25 -8 0 -17 7 -21 15 -3 8 -9 15 -13 14 -23 -4 -25 3 -5 17
17 12 19 18 9 28 -6 8 -18 11 -24 9 -7 -3 -13 0 -13 6 0 17 47 13 54 -5z
m-1109 -4 c-3 -5 -15 -10 -26 -10 -11 0 -17 5 -14 10 3 6 15 10 26 10 11 0 17
-4 14 -10z m385 -6 c0 -2 -7 -4 -15 -4 -8 0 -15 4 -15 10 0 5 7 7 15 4 8 -4
15 -8 15 -10z m117 -6 c-3 -8 -6 -5 -6 6 -1 11 2 17 5 13 3 -3 4 -12 1 -19z
m43 10 c0 6 7 9 15 6 8 -4 15 -16 14 -28 0 -15 -2 -17 -7 -6 -4 8 -13 15 -19
16 -28 2 -33 4 -33 15 0 8 5 8 15 -1 10 -8 15 -9 15 -2z m150 -3 c0 -8 -4 -15
-9 -15 -5 0 -11 7 -15 15 -3 9 0 15 9 15 8 0 15 -7 15 -15z m157 -7 c-3 -8 -6
-5 -6 6 -1 11 2 17 5 13 3 -3 4 -12 1 -19z m-1385 0 c-7 -7 -28 -11 -47 -9
-26 2 -35 -1 -35 -13 0 -8 -4 -18 -10 -21 -6 -4 -9 4 -7 17 3 28 19 36 72 37
31 1 36 -2 27 -11z m465 1 c-14 -8 -22 -8 -30 0 -8 8 -3 11 19 11 25 -1 27 -2
11 -11z m479 -26 c-10 -10 -19 5 -10 18 6 11 8 11 12 0 2 -7 1 -15 -2 -18z
m-1069 -18 c-13 -10 -15 -14 -5 -18 7 -2 1 -4 -15 -4 l-27 0 26 24 c14 13 29
21 33 18 3 -4 -2 -13 -12 -20z m1153 21 c0 -3 -4 -8 -10 -11 -5 -3 -10 -1 -10
4 0 6 5 11 10 11 6 0 10 -2 10 -4z m480 0 c0 -2 -7 -9 -15 -16 -13 -11 -14
-10 -9 4 5 14 24 23 24 12z m-1159 -59 c23 -2 16 -4 -21 -5 -30 0 -50 2 -43 4
7 3 10 13 7 22 -5 16 -5 16 8 0 8 -9 30 -18 49 -21z m289 23 c0 -5 -9 -10 -20
-10 -11 0 -20 -6 -20 -14 0 -7 -11 -16 -25 -19 -17 -3 -24 0 -22 7 2 6 12 10
22 8 12 -3 16 1 12 12 -4 10 2 16 21 19 15 2 28 5 30 6 1 0 2 -3 2 -9z m80 -6
c0 -2 -12 -4 -26 -4 -14 0 -23 4 -20 9 6 8 46 4 46 -5z m365 -6 c6 -4 2 -8 -7
-8 -10 0 -18 7 -18 17 0 9 3 12 8 7 4 -5 12 -12 17 -16z m-932 -15 c-7 -2 -19
-2 -25 0 -7 3 -2 5 12 5 14 0 19 -2 13 -5z m1297 -24 c0 -6 -4 -7 -10 -4 -5 3
-10 11 -10 16 0 6 5 7 10 4 6 -3 10 -11 10 -16z m-1673 -11 c-3 -8 -6 -5 -6 6
-1 11 2 17 5 13 3 -3 4 -12 1 -19z m533 12 c0 -5 -21 -9 -47 -8 l-48 1 45 7
c25 4 46 8 48 8 1 1 2 -2 2 -8z m30 0 c0 -5 -5 -10 -11 -10 -5 0 -7 5 -4 10 3
6 8 10 11 10 2 0 4 -4 4 -10z m910 0 c0 -5 -2 -10 -4 -10 -3 0 -8 5 -11 10 -3
6 -1 10 4 10 6 0 11 -4 11 -10z m530 0 c-19 -13 -30 -13 -30 0 0 6 10 10 23
10 18 0 19 -2 7 -10z m-1337 -7 c-7 -2 -21 -2 -30 0 -10 3 -4 5 12 5 17 0 24
-2 18 -5z m157 -3 c0 -5 -7 -10 -15 -10 -8 0 -15 5 -15 10 0 6 7 10 15 10 8 0
15 -4 15 -10z m104 -11 c-16 -6 -15 -8 9 -8 15 -1 27 -5 27 -11 0 -11 -26 -12
-54 -1 -17 7 -17 8 -1 24 9 10 22 14 28 10 7 -4 4 -9 -9 -14z m789 14 c-7 -2
-19 -2 -25 0 -7 3 -2 5 12 5 14 0 19 -2 13 -5z m-723 -7 c0 -3 -4 -8 -10 -11
-5 -3 -10 -1 -10 4 0 6 5 11 10 11 6 0 10 -2 10 -4z m116 -11 c-8 -8 -22 -15
-30 -15 -9 0 -16 7 -16 15 0 10 10 15 31 15 27 0 29 -2 15 -15z m-1018 -2
c-16 -2 -40 -2 -55 0 -16 2 -3 4 27 4 30 0 43 -2 28 -4z m202 -3 c0 -5 -4 -10
-10 -10 -5 0 -10 5 -10 10 0 6 5 10 10 10 6 0 10 -4 10 -10z m193 -8 c-15 -2
-23 -10 -23 -23 0 -10 -3 -19 -7 -19 -19 1 -32 17 -28 35 4 24 -2 22 43 16 26
-4 30 -6 15 -9z m1212 8 c3 -6 -1 -7 -9 -4 -18 7 -21 14 -7 14 6 0 13 -4 16
-10z m-665 -10 c0 -5 -7 -10 -15 -10 -8 0 -15 5 -15 10 0 6 7 10 15 10 8 0 15
-4 15 -10z m-1075 -10 c-3 -5 -11 -10 -16 -10 -6 0 -7 5 -4 10 3 6 11 10 16
10 6 0 7 -4 4 -10z m1632 4 c-3 -3 -12 -4 -19 -1 -8 3 -5 6 6 6 11 1 17 -2 13
-5z m84 -22 c-4 -9 -6 -23 -4 -29 3 -7 -1 -13 -7 -13 -9 0 -9 -4 -2 -12 8 -10
2 -14 -26 -16 -20 -1 -39 3 -43 10 -6 9 -11 9 -23 -1 -11 -9 -16 -10 -16 -2 0
6 -9 11 -21 11 -12 0 -23 8 -26 20 -3 11 -10 20 -15 20 -6 0 -8 -7 -4 -15 3
-8 1 -15 -5 -15 -6 0 -9 8 -7 18 4 20 48 30 48 11 0 -10 5 -9 16 3 11 11 25
14 47 9 18 -4 43 -4 57 0 14 4 18 8 10 8 -13 1 -13 3 0 10 20 13 32 3 21 -17z
m-796 8 c3 -5 1 -10 -4 -10 -6 0 -11 5 -11 10 0 6 2 10 4 10 3 0 8 -4 11 -10z
m958 -10 c-3 -11 -9 -20 -13 -20 -5 0 -6 9 -3 20 3 11 9 20 13 20 5 0 6 -9 3
-20z m-895 3 c-10 -2 -26 -2 -35 0 -10 3 -2 5 17 5 19 0 27 -2 18 -5z m375
-10 c-7 -2 -19 -2 -25 0 -7 3 -2 5 12 5 14 0 19 -2 13 -5z m100 0 c-7 -2 -19
-2 -25 0 -7 3 -2 5 12 5 14 0 19 -2 13 -5z m372 -3 c3 -6 -1 -7 -9 -4 -18 7
-21 14 -7 14 6 0 13 -4 16 -10z m132 -6 c-3 -3 -12 -4 -19 -1 -8 3 -5 6 6 6
11 1 17 -2 13 -5z m58 -4 c17 -7 16 -9 -10 -9 -23 -1 -27 -4 -15 -11 13 -8 12
-10 -2 -10 -11 0 -18 8 -18 20 0 21 12 24 45 10z m-1085 -30 c0 -5 -5 -10 -11
-10 -5 0 -7 5 -4 10 3 6 8 10 11 10 2 0 4 -4 4 -10z m1130 6 c0 -3 -4 -8 -10
-11 -5 -3 -10 -1 -10 4 0 6 5 11 10 11 6 0 10 -2 10 -4z m-1585 -16 c3 -5 -1
-10 -10 -10 -9 0 -13 5 -10 10 3 6 8 10 10 10 2 0 7 -4 10 -10z m-265 -9 c0
-5 -9 -7 -20 -4 -11 3 -20 7 -20 9 0 2 9 4 20 4 11 0 20 -4 20 -9z m745 -1 c4
-6 -6 -10 -22 -10 -22 0 -25 2 -13 10 19 12 27 12 35 0z m-759 -44 c-1 -10 -7
-21 -15 -24 -9 -3 -12 0 -8 10 3 9 1 20 -5 26 -8 8 -5 11 9 9 13 -1 20 -8 19
-21z m739 14 c3 -5 -1 -10 -10 -10 -9 0 -13 5 -10 10 3 6 8 10 10 10 2 0 7 -4
10 -10z m571 -44 c1 -20 -5 -30 -17 -33 -10 -3 -16 -10 -13 -15 3 -5 3 -20 0
-33 -4 -17 -11 -22 -26 -18 -24 6 -25 12 -5 40 14 20 14 22 -5 28 -23 7 -26
21 -7 39 34 35 72 31 73 -8z m194 20 c0 -18 -18 -32 -52 -40 l-27 -6 27 29
c29 32 52 39 52 17z m-1656 -15 c8 -12 -21 -34 -33 -27 -6 4 -8 13 -4 21 6 17
29 20 37 6z m816 -21 c0 -5 -2 -10 -4 -10 -3 0 -8 5 -11 10 -3 6 -1 10 4 10 6
0 11 -4 11 -10z m-50 -19 c0 -11 8 -22 18 -24 9 -3 3 -5 -14 -6 -28 -1 -31 1
-26 24 5 29 22 34 22 6z m-322 -13 c2 -10 9 -18 16 -17 27 3 36 -2 36 -21 0
-11 6 -20 13 -20 7 -1 4 -6 -7 -15 -10 -7 -16 -18 -13 -22 3 -5 -16 -6 -43 -3
-29 4 -54 2 -60 -4 -13 -13 -14 79 0 104 13 23 51 22 58 -2z m544 -22 c21 -3
42 -7 47 -10 5 -4 12 -2 16 4 8 13 35 13 35 1 0 -5 -5 -22 -11 -38 -8 -22 -12
-24 -20 -13 -8 13 -11 13 -23 -2 -16 -22 -27 -23 -20 -3 7 18 -12 20 -19 3 -4
-10 -8 -10 -14 -2 -4 7 -27 16 -49 20 -38 8 -41 11 -33 32 6 17 14 21 31 17
13 -3 40 -7 60 -9z m-1038 -12 c20 -8 9 -34 -15 -34 -18 0 -26 20 -12 33 8 8
8 8 27 1z m1683 0 c-3 -3 -12 -4 -19 -1 -8 3 -5 6 6 6 11 1 17 -2 13 -5z
m-438 -50 c-15 -19 -28 -9 -22 16 4 16 8 18 19 9 11 -9 11 -15 3 -25z m111 21
c0 -8 -4 -15 -10 -15 -5 0 -10 7 -10 15 0 8 5 15 10 15 6 0 10 -7 10 -15z
m-576 -30 c-4 -8 -8 -15 -10 -15 -2 0 -4 7 -4 15 0 8 4 15 10 15 5 0 7 -7 4
-15z m36 3 c0 -17 -18 -44 -24 -37 -8 7 5 49 15 49 5 0 9 -6 9 -12z m1370 -84
c12 -19 19 -38 16 -42 -4 -3 -9 4 -13 16 -5 21 -14 26 -40 23 -7 -1 -13 5 -13
13 0 8 6 17 13 19 6 3 13 6 14 6 1 1 11 -15 23 -35z m-1670 -40 c0 -2 -21 -4
-47 -3 -37 1 -42 3 -23 8 24 7 70 3 70 -5z m890 0 c0 -2 -9 -4 -21 -4 -11 0
-18 4 -14 10 5 8 35 3 35 -6z m-587 -1 c-7 -2 -19 -2 -25 0 -7 3 -2 5 12 5 14
0 19 -2 13 -5z m340 0 c-13 -2 -35 -2 -50 0 -16 2 -5 4 22 4 28 0 40 -2 28 -4z
m750 0 c-18 -2 -48 -2 -65 0 -18 2 -4 4 32 4 36 0 50 -2 33 -4z m80 0 c-7 -2
-19 -2 -25 0 -7 3 -2 5 12 5 14 0 19 -2 13 -5z m263 -25 c7 -5 18 -7 25 -6 8
2 13 -5 13 -14 -2 -20 11 -24 21 -8 11 18 25 11 25 -12 l0 -23 18 23 18 23 19
-20 c18 -21 82 -31 70 -11 -3 6 -2 10 2 10 5 0 14 -9 21 -20 7 -12 8 -20 2
-20 -5 0 -10 3 -10 8 0 4 -50 7 -110 6 -62 0 -110 3 -110 9 0 5 -6 7 -14 4 -8
-3 -20 1 -28 10 -11 14 -9 15 20 11 21 -3 31 -1 29 6 -2 6 -17 12 -33 12 -39
2 -75 14 -69 24 6 10 75 1 91 -12z m-2149 6 c-3 -3 -12 -4 -19 -1 -8 3 -5 6 6
6 11 1 17 -2 13 -5z m333 -15 c0 -4 -7 -6 -15 -3 -8 4 -15 10 -15 15 0 4 7 6
15 3 8 -4 15 -10 15 -15z m1730 -21 c0 -5 -4 -6 -10 -3 -6 4 -10 -7 -10 -24 0
-26 4 -31 25 -31 27 0 32 -9 14 -27 -6 -6 -13 -26 -15 -44 -3 -19 -12 -39 -19
-45 -10 -7 -11 -14 -4 -21 7 -7 2 -13 -17 -17 -18 -5 -24 -10 -16 -15 9 -5 7
-13 -7 -30 -11 -13 -21 -26 -23 -30 -2 -5 -16 -11 -31 -15 -18 -4 -26 -3 -23
3 3 5 1 11 -6 13 -7 3 -5 9 6 19 10 7 25 22 34 33 9 10 24 26 34 35 18 17 29
65 33 139 2 26 3 55 4 64 1 18 31 14 31 -4z m450 8 c0 -3 -4 -8 -10 -11 -5 -3
-10 -1 -10 4 0 6 5 11 10 11 6 0 10 -2 10 -4z m-180 -16 c0 -5 -2 -10 -4 -10
-3 0 -8 5 -11 10 -3 6 -1 10 4 10 6 0 11 -4 11 -10z m-1914 -26 c-3 -9 4 -16
18 -20 15 -3 27 -16 30 -30 5 -17 13 -24 29 -24 13 0 28 -5 35 -12 7 -7 12 -8
12 -1 0 6 19 9 48 7 26 -2 57 -3 68 -3 17 -1 20 -6 16 -26 -5 -26 -18 -33 -24
-14 -6 17 -79 23 -90 7 -8 -10 -11 -10 -15 0 -2 6 -13 12 -23 12 -10 0 -21 -6
-24 -12 -5 -10 -7 -10 -12 0 -5 10 -8 10 -18 -2 -7 -9 -22 -12 -43 -9 -30 5
-33 9 -33 39 0 25 4 34 18 35 10 0 12 3 4 6 -7 3 -19 18 -28 35 -9 17 -11 27
-5 24 6 -4 11 -3 11 3 0 6 7 8 16 4 8 -3 13 -12 10 -19z m124 11 c-3 -5 -11
-10 -19 -10 -8 0 -16 -5 -18 -11 -2 -7 8 -9 27 -6 16 2 37 2 45 -2 14 -5 13
-8 -2 -24 -24 -24 -63 -27 -63 -4 -1 15 -2 15 -16 -3 -15 -19 -16 -18 -9 14 5
23 4 31 -4 27 -7 -5 -11 1 -11 14 0 18 5 21 38 18 20 -2 35 -7 32 -13z m520 5
c0 -5 -8 -10 -17 -10 -15 0 -16 2 -3 10 19 12 20 12 20 0z m1376 -27 c-11 -11
-17 4 -9 23 7 18 8 18 11 1 2 -10 1 -21 -2 -24z m-1981 18 c3 -5 1 -12 -5 -16
-5 -3 -10 1 -10 9 0 18 6 21 15 7z m329 -6 c-4 -8 -8 -15 -10 -15 -2 0 -4 7
-4 15 0 8 4 15 10 15 5 0 7 -7 4 -15z m496 3 c16 -10 24 -10 40 0 14 8 20 9
20 1 0 -6 9 -9 19 -6 11 3 22 -1 25 -8 4 -11 -9 -12 -57 -9 -75 6 -90 11 -82
24 8 13 11 13 35 -2z m1214 3 c3 -5 15 -7 26 -4 11 3 20 0 20 -6 0 -6 12 -11
28 -12 15 -1 38 -5 52 -10 18 -6 10 -7 -29 -4 -29 2 -59 9 -66 15 -10 8 -14 7
-18 -2 -4 -10 -7 -10 -15 1 -6 8 -17 11 -27 7 -15 -5 -16 -4 -5 9 14 17 26 19
34 6z m269 -2 c22 0 22 0 -1 -11 -19 -9 -26 -8 -40 7 -16 17 -16 17 1 11 10
-3 28 -6 40 -7z m-1910 -6 c-7 -2 -19 -2 -25 0 -7 3 -2 5 12 5 14 0 19 -2 13
-5z m74 1 c-3 -3 -12 -4 -19 -1 -8 3 -5 6 6 6 11 1 17 -2 13 -5z m1788 -24
c-3 -4 10 -11 28 -15 17 -4 26 -9 19 -12 -22 -9 -68 16 -69 38 -2 17 1 18 12
9 8 -7 13 -16 10 -20z m-1567 -8 c2 -21 0 -23 -13 -12 -18 15 -20 37 -2 37 7
0 14 -11 15 -25z m-229 -23 c21 -1 22 -2 6 -6 -11 -3 -26 -12 -34 -21 -10 -13
-12 -14 -8 -2 2 8 -2 23 -10 32 -9 9 -12 22 -7 29 5 9 10 7 17 -9 6 -14 20
-22 36 -23z m602 34 c-11 -5 -11 -7 0 -14 11 -7 10 -9 -3 -9 -10 0 -18 7 -18
15 0 8 8 15 18 14 12 0 13 -2 3 -6z m99 -3 c0 -5 12 -10 26 -10 14 0 23 4 19
10 -4 6 9 9 32 9 23 -1 29 -3 16 -6 -24 -5 -32 -23 -11 -23 9 0 9 -3 1 -11
-12 -12 -229 -17 -240 -5 -4 3 10 6 30 6 19 0 42 6 49 13 7 8 19 12 26 9 6 -2
12 1 12 7 0 6 9 11 20 11 11 0 20 -4 20 -10z m250 0 c0 -5 -4 -10 -9 -10 -6 0
-13 5 -16 10 -3 6 1 10 9 10 9 0 16 -4 16 -10z m-1230 -9 c0 -10 -26 -9 -36 2
-4 4 2 7 14 7 12 0 22 -4 22 -9z m140 -8 c0 -9 -3 -13 -6 -10 -4 3 -15 2 -25
-4 -16 -8 -19 -6 -19 11 0 15 7 20 25 20 17 0 25 -6 25 -17z m510 -4 c60 -1
78 -4 65 -11 -10 -6 -55 -8 -104 -5 -103 7 -101 6 -76 16 11 5 23 7 26 5 3 -2
43 -4 89 -5z m-160 -19 c1 -28 26 -49 66 -53 38 -4 38 -4 -8 -5 -33 -1 -48 2
-48 11 0 9 -2 9 -9 -1 -8 -13 -127 -20 -139 -8 -3 4 6 6 20 6 14 0 31 7 38 15
7 8 26 15 42 15 19 0 28 4 26 12 -3 8 -19 12 -41 10 -21 -2 -37 1 -37 7 0 6
19 9 45 8 33 -1 45 -6 45 -17z m1660 0 c0 -5 -5 -10 -11 -10 -5 0 -7 5 -4 10
3 6 8 10 11 10 2 0 4 -4 4 -10z m-1800 -22 c0 -19 -2 -20 -10 -8 -13 19 -13
30 0 30 6 0 10 -10 10 -22z m1935 12 c3 -5 1 -10 -4 -10 -6 0 -11 5 -11 10 0
6 2 10 4 10 3 0 8 -4 11 -10z m-1975 -10 c-8 -5 -19 -10 -25 -10 -5 0 -3 5 5
10 8 5 20 10 25 10 6 0 3 -5 -5 -10z m-165 -26 c1 -21 -24 -30 -36 -12 -3 5
-15 11 -25 13 -10 2 -20 4 -22 4 -2 1 0 6 3 12 4 5 23 9 43 7 28 -2 36 -8 37
-24z m532 18 c7 -4 -8 -7 -33 -7 -24 0 -44 3 -44 8 0 9 61 9 77 -1z m248 -2
c3 -6 -1 -7 -9 -4 -9 3 -16 1 -16 -5 0 -6 -13 -11 -30 -11 -30 0 -41 14 -17
23 22 9 66 7 72 -3z m100 0 c-3 -5 -12 -10 -20 -10 -8 0 -17 5 -20 10 -4 6 5
10 20 10 15 0 24 -4 20 -10z m35 0 c0 -5 -2 -10 -4 -10 -3 0 -8 5 -11 10 -3 6
-1 10 4 10 6 0 11 -4 11 -10z m1330 6 c0 -3 -4 -8 -10 -11 -5 -3 -10 -1 -10 4
0 6 5 11 10 11 6 0 10 -2 10 -4z m-2730 -10 c0 -3 -4 -8 -10 -11 -5 -3 -10 -1
-10 4 0 6 5 11 10 11 6 0 10 -2 10 -4z m2854 -12 c16 -6 12 -24 -5 -24 -6 0
-8 4 -4 9 3 5 -3 12 -12 14 -10 3 -13 5 -6 6 6 0 18 -2 27 -5z m101 -5 c-6 11
-2 13 21 7 16 -4 30 -12 32 -17 2 -5 15 -6 29 -3 16 4 24 3 20 -3 -7 -11 -107
-11 -125 0 -7 5 -10 13 -6 18 3 6 12 5 22 -3 13 -11 14 -11 7 1z m-2297 -6
c-10 -2 -26 -2 -35 0 -10 3 -2 5 17 5 19 0 27 -2 18 -5z m2552 -3 c0 -13 -11
-13 -30 0 -12 8 -11 10 8 10 12 0 22 -4 22 -10z m255 2 c10 -7 35 -47 35 -56
0 -2 -16 0 -36 6 -20 5 -45 7 -55 5 -22 -6 -25 3 -7 21 10 10 10 15 -2 22 -11
7 -6 10 20 10 19 0 40 -4 45 -8z m-3498 -24 c-3 -8 -6 -5 -6 6 -1 11 2 17 5
13 3 -3 4 -12 1 -19z m1243 7 c0 -9 -9 -15 -22 -14 -18 1 -19 2 -5 6 9 2 15 9
12 14 -4 5 -1 9 4 9 6 0 11 -7 11 -15z m-806 -44 c-4 -23 -9 -40 -11 -37 -3 3
-2 23 2 46 4 23 9 39 11 37 3 -2 2 -23 -2 -46z m2780 25 c8 -14 8 -20 -1 -23
-21 -8 15 -36 37 -30 11 3 18 1 14 -4 -3 -5 3 -9 12 -9 12 0 15 -3 8 -10 -7
-7 -20 -6 -39 4 -18 10 -34 12 -45 6 -9 -5 -22 -5 -31 1 -11 7 -11 9 4 9 9 0
17 3 17 6 0 4 -8 13 -17 20 -17 12 -16 13 4 14 26 0 42 20 16 20 -10 0 -25 5
-33 11 -12 7 -8 9 14 7 16 -2 34 -11 40 -22z m341 3 c4 -11 4 -31 1 -45 -4
-16 -2 -24 6 -24 7 0 14 -11 14 -25 1 -14 -2 -25 -7 -25 -5 0 -9 -6 -9 -14 0
-8 -5 -18 -12 -22 -8 -5 -9 1 -5 22 3 17 2 36 -4 44 -7 12 -9 9 -10 -10 0 -14
-3 -19 -6 -12 -3 8 3 31 12 53 17 37 17 40 0 59 -16 17 -16 20 -2 20 9 0 19
-9 22 -21z m-3339 -17 c1 -17 -4 -22 -25 -22 -21 0 -23 2 -11 11 12 8 9 9 -10
5 -21 -4 -26 -1 -26 14 0 17 6 20 36 17 28 -2 35 -7 36 -25z m104 20 c0 -5 -7
-9 -15 -9 -8 0 -15 4 -15 9 0 4 7 8 15 8 8 0 15 -4 15 -8z m2820 -13 c0 -5 -7
-9 -16 -9 -8 0 -13 -4 -10 -8 2 -4 -4 -8 -15 -8 -10 0 -19 4 -19 8 0 4 7 8 15
8 8 0 14 3 14 8 -3 16 2 21 16 16 8 -4 15 -10 15 -15z m119 12 c9 -6 10 -11 2
-15 -6 -4 -9 -12 -6 -17 4 -5 -4 -9 -16 -9 -17 0 -20 3 -12 11 6 6 9 18 6 25
-6 16 5 18 26 5z m-2885 -20 c-22 -21 -27 -21 -18 3 3 9 13 16 22 16 13 0 12
-3 -4 -19z m3011 -1 c3 -5 2 -10 -4 -10 -5 0 -13 5 -16 10 -3 6 -2 10 4 10 5
0 13 -4 16 -10z m-3075 -10 c0 -5 -4 -10 -10 -10 -5 0 -10 5 -10 10 0 6 5 10
10 10 6 0 10 -4 10 -10z m3410 -10 c8 -5 11 -10 5 -10 -5 0 -17 5 -25 10 -8 5
-10 10 -5 10 6 0 17 -5 25 -10z m-2104 -58 c2 -13 9 -20 14 -17 19 12 10 -12
-12 -31 -17 -16 -20 -16 -15 -3 3 9 2 34 -3 55 -5 21 -6 43 -2 48 4 6 8 2 10
-9 1 -11 5 -30 8 -43z m1734 48 c13 -1 13 -2 -1 -13 -8 -7 -18 -20 -22 -29 -3
-10 -14 -18 -22 -18 -15 0 -15 2 -1 22 19 27 20 35 4 41 -7 2 -4 3 7 1 11 -2
27 -4 35 -4z m523 3 c-7 -2 -19 -2 -25 0 -7 3 -2 5 12 5 14 0 19 -2 13 -5z
m49 -7 c6 4 8 2 5 -3 -4 -6 -16 -13 -27 -16 -17 -4 -18 -3 -8 16 7 14 13 17
16 9 2 -6 9 -9 14 -6z m-282 -6 c0 -5 -6 -10 -14 -10 -8 0 -16 -6 -19 -12 -2
-7 -8 -9 -13 -5 -5 5 -1 15 10 23 23 16 36 18 36 4z m90 -2 c0 4 7 -1 14 -11
9 -12 16 -14 21 -8 8 13 45 15 45 2 0 -5 -10 -7 -22 -3 -23 5 -23 5 -4 -16 11
-12 14 -22 8 -22 -6 0 -13 4 -16 9 -3 4 -22 6 -43 4 -44 -5 -57 -13 -20 -13
16 0 30 -8 37 -20 10 -18 9 -19 -16 -10 -14 6 -30 7 -36 4 -5 -3 -16 2 -24 12
-11 14 -17 15 -20 7 -3 -7 -10 -13 -15 -13 -6 0 -7 5 -3 11 4 7 0 9 -14 5 -11
-4 -23 -3 -26 2 -2 4 15 14 40 20 40 11 61 32 32 32 -9 0 -9 3 1 9 8 6 24 6
38 0 12 -5 23 -5 23 -1z m-3520 -9 c0 -8 4 -8 15 1 20 17 39 3 21 -16 -23 -22
-66 -18 -66 6 0 11 7 20 15 20 8 0 15 -5 15 -11z m2780 -20 c0 -11 -4 -11 -65
5 -34 9 -43 15 -30 18 26 5 95 -12 95 -23z m971 8 c-1 -12 -15 -9 -19 4 -3 6
1 10 8 8 6 -3 11 -8 11 -12z m-3961 -7 c0 -5 -5 -10 -11 -10 -5 0 -7 5 -4 10
3 6 8 10 11 10 2 0 4 -4 4 -10z m508 -6 c-2 -8 -6 -15 -10 -15 -5 1 -21 1 -38
1 -22 0 -28 4 -24 15 9 21 77 21 72 -1z m2552 1 c0 -8 5 -15 10 -15 6 0 10 7
10 15 0 8 7 15 15 15 8 0 15 -5 15 -11 0 -5 -4 -7 -10 -4 -13 8 -13 -8 -1 -21
6 -5 -7 -10 -35 -12 -45 -2 -52 6 -29 35 14 17 25 16 25 -2z m1030 5 c12 -8
11 -10 -7 -10 -13 0 -23 5 -23 10 0 13 11 13 30 0z m-3711 -9 c9 -6 10 -10 2
-16 -15 -8 -41 1 -41 15 0 12 20 13 39 1z m3464 -6 c-3 -9 -8 -14 -10 -11 -3
3 -2 9 2 15 9 16 15 13 8 -4z m67 -1 c0 -2 -7 -4 -15 -4 -8 0 -15 4 -15 10 0
5 7 7 15 4 8 -4 15 -8 15 -10z m140 1 c25 -14 24 -16 -18 -20 -16 -2 -22 2
-18 12 3 8 2 12 -2 9 -4 -2 -14 -1 -22 5 -25 15 32 10 60 -6z m-870 -7 c0 -4
-12 -8 -26 -8 -14 0 -23 4 -19 9 6 11 45 10 45 -1z m40 -9 c0 -6 -4 -7 -10 -4
-5 3 -10 11 -10 16 0 6 5 7 10 4 6 -3 10 -11 10 -16z m60 11 c0 -5 -4 -10 -9
-10 -6 0 -13 5 -16 10 -3 6 1 10 9 10 9 0 16 -4 16 -10z m-1530 -10 c0 -5 -4
-10 -10 -10 -5 0 -10 5 -10 10 0 6 5 10 10 10 6 0 10 -4 10 -10z m995 -1 c11
-16 1 -19 -13 -3 -7 8 -8 14 -3 14 5 0 13 -5 16 -11z m1452 5 c-3 -3 -12 -4
-19 -1 -8 3 -5 6 6 6 11 1 17 -2 13 -5z m-3377 -14 c0 -5 -2 -10 -4 -10 -3 0
-8 5 -11 10 -3 6 -1 10 4 10 6 0 11 -4 11 -10z m1402 -12 c-7 -7 -12 -8 -12
-2 0 14 12 26 19 19 2 -3 -1 -11 -7 -17z m2048 15 c0 -5 -13 -8 -30 -9 -16 -1
-27 3 -24 7 6 11 54 12 54 2z m-3816 -12 c3 -5 -1 -11 -9 -15 -9 -3 -15 0 -15
9 0 16 16 20 24 6z m3873 -7 c2 -7 -6 -10 -21 -7 -14 3 -23 10 -20 15 8 12 36
6 41 -8z m-1157 -4 c0 -5 -4 -10 -10 -10 -5 0 -10 5 -10 10 0 6 5 10 10 10 6
0 10 -4 10 -10z m635 0 c3 -5 -3 -10 -15 -10 -12 0 -18 5 -15 10 3 6 10 10 15
10 5 0 12 -4 15 -10z m55 -16 c0 -12 -4 -12 -20 -4 -11 6 -18 15 -15 20 8 13
35 0 35 -16z m526 11 c10 -8 15 -15 10 -15 -5 0 -1 -9 9 -20 16 -18 16 -20 2
-20 -10 0 -17 -6 -17 -14 0 -9 8 -12 24 -9 13 3 26 1 29 -4 4 -6 -9 -10 -28
-11 -19 -1 -37 3 -40 9 -4 5 -15 7 -25 4 -13 -4 -17 -1 -16 11 0 9 -5 19 -12
21 -7 3 -10 -1 -6 -11 5 -12 0 -16 -20 -16 -14 0 -26 4 -26 10 0 5 7 6 17 3
11 -5 14 -3 8 6 -10 18 16 33 32 19 7 -6 13 -7 13 -2 0 5 4 3 9 -5 5 -7 14
-10 20 -7 16 10 14 46 -3 46 -8 0 -18 5 -21 10 -9 15 19 12 41 -5z m-253 -17
c4 -12 4 -24 2 -27 -3 -2 -5 1 -5 7 0 7 -9 12 -20 12 -11 0 -20 7 -20 15 0 24
37 18 43 -7z m346 -11 c0 -9 -2 -9 -6 1 -2 6 -17 12 -31 12 -20 0 -23 3 -13 9
18 11 51 -4 50 -22z m76 23 c3 -5 1 -10 -4 -10 -6 0 -11 5 -11 10 0 6 2 10 4
10 3 0 8 -4 11 -10z m-1825 -9 c0 -5 -7 -12 -16 -15 -14 -5 -15 -4 -4 9 14 17
20 19 20 6z m395 -1 c3 -5 -1 -10 -9 -10 -9 0 -16 5 -16 10 0 6 4 10 9 10 6 0
13 -4 16 -10z m1045 -5 c1 12 30 -25 30 -37 0 -4 -7 -8 -15 -8 -8 0 -15 7 -15
15 0 8 -4 15 -10 15 -5 0 -10 8 -10 18 0 14 2 15 10 2 5 -8 10 -10 10 -5z
m-1370 -5 c0 -5 -4 -10 -10 -10 -5 0 -10 5 -10 10 0 6 5 10 10 10 6 0 10 -4
10 -10z m1475 -9 c-3 -6 -11 -11 -17 -11 -6 0 -6 6 2 15 14 17 26 13 15 -4z
m355 9 c0 -5 -2 -10 -4 -10 -3 0 -8 5 -11 10 -3 6 -1 10 4 10 6 0 11 -4 11
-10z m60 3 c-8 -4 -20 -13 -27 -22 -14 -19 -26 -10 -17 13 4 9 17 16 33 15 16
0 20 -3 11 -6z m105 -5 c4 -4 14 -4 22 -1 8 3 21 -3 29 -16 19 -26 98 -31 108
-6 3 8 9 15 14 15 8 0 9 -17 3 -53 0 -5 -9 -6 -20 -2 -10 3 -35 6 -55 7 -20 1
-40 7 -44 13 -10 18 -80 24 -86 8 -7 -17 -48 -16 -72 2 -22 17 -12 20 17 5 24
-13 49 -1 25 12 -9 5 -16 13 -16 18 0 10 65 8 75 -2z m-335 -8 c0 -5 -7 -10
-15 -10 -8 0 -15 5 -15 10 0 6 7 10 15 10 8 0 15 -4 15 -10z m475 -10 c-6 -9
-43 -2 -50 9 -2 4 9 5 25 3 17 -2 28 -8 25 -12z m-2715 0 c13 -8 13 -10 -2
-10 -9 0 -18 -6 -21 -12 -4 -10 -7 -10 -18 0 -12 11 -12 14 1 22 19 12 21 12
40 0z m2004 -6 c5 -14 4 -15 -9 -4 -17 14 -19 20 -6 20 5 0 12 -7 15 -16z
m806 6 c0 -5 -7 -10 -15 -10 -8 0 -15 5 -15 10 0 6 7 10 15 10 8 0 15 -4 15
-10z m-3019 -30 c17 0 28 -4 24 -10 -8 -13 -57 -9 -72 6 -9 9 -9 14 0 23 9 9
13 9 15 -3 2 -10 14 -16 33 -16z m49 26 c0 -3 -4 -8 -10 -11 -5 -3 -10 -1 -10
4 0 6 5 11 10 11 6 0 10 -2 10 -4z m3125 -19 c7 -6 -5 -7 -35 -3 -59 9 -76 26
-19 19 24 -3 49 -10 54 -16z m63 -1 c-2 -1 -12 -8 -22 -16 -18 -14 -19 -14 -7
8 7 12 17 20 22 16 6 -3 9 -7 7 -8z m510 -13 c2 -13 -1 -23 -7 -23 -6 0 -11 4
-11 9 0 5 -6 9 -12 8 -51 -2 -91 4 -82 12 11 11 50 19 84 17 18 -1 26 -7 28
-23z m-928 -4 c0 -6 -4 -7 -10 -4 -5 3 -10 11 -10 16 0 6 5 7 10 4 6 -3 10
-11 10 -16z m259 5 c2 -2 -12 -4 -32 -4 -20 0 -37 4 -37 10 0 8 58 3 69 -6z
m-2455 -10 c8 -21 8 -24 -5 -24 -5 0 -7 5 -4 10 3 6 -1 10 -10 10 -9 0 -13 5
-10 10 9 15 22 12 29 -6z m2656 6 c0 -5 -10 -10 -22 -10 -19 0 -20 2 -8 10 19
13 30 13 30 0z m120 0 c0 -5 7 -10 16 -10 14 0 15 -2 3 -17 -13 -15 -14 -15
-17 0 -2 10 -10 17 -17 17 -8 0 -17 5 -20 10 -3 6 3 10 14 10 12 0 21 -4 21
-10z m669 -22 c-14 -6 -25 -4 -29 3 -5 7 -25 9 -61 4 -65 -8 -68 -8 -98 -1
-38 9 -38 17 1 12 19 -3 57 -2 84 2 27 4 66 3 87 -2 34 -9 36 -11 16 -18z
m-3346 -15 c-6 -15 -13 -16 -31 -5 -7 5 -10 16 -6 25 5 13 9 14 24 5 10 -6 16
-18 13 -25z m437 16 c0 -5 -7 -9 -15 -9 -8 0 -15 7 -15 15 0 9 6 12 15 9 8 -4
15 -10 15 -15z m1492 4 c23 -21 23 -29 -2 -36 -22 -6 -28 8 -7 16 6 2 9 8 5
12 -5 5 -16 2 -25 -7 -20 -16 -42 -18 -45 -3 -2 6 9 11 25 13 15 2 25 8 22 13
-10 15 7 10 27 -8z m-2707 -3 c3 -5 2 -10 -4 -10 -5 0 -13 5 -16 10 -3 6 -2
10 4 10 5 0 13 -4 16 -10z m140 0 c3 -5 -1 -10 -10 -10 -9 0 -13 5 -10 10 3 6
8 10 10 10 2 0 7 -4 10 -10z m145 0 c0 -5 -7 -10 -15 -10 -8 0 -15 5 -15 10 0
6 7 10 15 10 8 0 15 -4 15 -10z m50 0 c0 -5 -4 -10 -10 -10 -5 0 -10 5 -10 10
0 6 5 10 10 10 6 0 10 -4 10 -10z m2407 -12 c-3 -8 -6 -5 -6 6 -1 11 2 17 5
13 3 -3 4 -12 1 -19z m43 12 c0 -6 10 -15 23 -20 14 -6 16 -9 6 -9 -9 -1 -24
8 -34 19 -10 11 -13 20 -7 20 7 0 12 -5 12 -10z m70 0 c0 -5 -2 -10 -4 -10 -3
0 -8 5 -11 10 -3 6 -1 10 4 10 6 0 11 -4 11 -10z m380 6 c0 -3 -4 -8 -10 -11
-5 -3 -10 -1 -10 4 0 6 5 11 10 11 6 0 10 -2 10 -4z m170 0 c0 -3 -4 -8 -10
-11 -5 -3 -10 -1 -10 4 0 6 5 11 10 11 6 0 10 -2 10 -4z m-2240 -16 c0 -5 -2
-10 -4 -10 -3 0 -8 5 -11 10 -3 6 -1 10 4 10 6 0 11 -4 11 -10z m1407 4 c-3
-3 -12 -4 -19 -1 -8 3 -5 6 6 6 11 1 17 -2 13 -5z m959 -10 c17 -14 17 -15 1
-10 -10 3 -23 6 -28 6 -5 0 -9 5 -9 10 0 14 13 12 36 -6z m-2971 -4 c-3 -5 -1
-10 4 -10 18 0 12 -20 -6 -27 -10 -4 -27 -16 -37 -27 -17 -18 -18 -19 -13 -3
4 10 7 23 7 28 0 5 3 8 8 8 24 -4 33 3 27 21 -4 12 -2 20 5 20 6 0 8 -4 5 -10z
m3765 -16 c0 -2 -14 -4 -31 -4 -16 0 -28 4 -25 9 5 8 56 3 56 -5z m-6073 -21
c-8 -7 -37 9 -31 19 3 5 12 4 20 -3 8 -6 13 -14 11 -16z m1418 17 c3 -5 1 -10
-4 -10 -6 0 -11 5 -11 10 0 6 2 10 4 10 3 0 8 -4 11 -10z m75 -6 c0 -2 -7 -4
-15 -4 -8 0 -15 4 -15 10 0 5 7 7 15 4 8 -4 15 -8 15 -10z m535 6 c-3 -5 -10
-10 -16 -10 -5 0 -9 5 -9 10 0 6 7 10 16 10 8 0 12 -4 9 -10z m45 0 c0 -5 -2
-10 -4 -10 -3 0 -8 5 -11 10 -3 6 -1 10 4 10 6 0 11 -4 11 -10z m60 6 c0 -2
-7 -7 -16 -10 -8 -3 -12 -2 -9 4 6 10 25 14 25 6z m3388 -28 c-7 -3 -21 -2
-32 4 -12 6 -22 11 -23 10 -2 -1 -11 -1 -20 0 -10 0 2 4 27 7 44 6 71 -6 48
-21z m-3771 16 c-3 -3 -12 -4 -19 -1 -8 3 -5 6 6 6 11 1 17 -2 13 -5z m438 -4
c-3 -5 -11 -10 -16 -10 -6 0 -7 5 -4 10 3 6 11 10 16 10 6 0 7 -4 4 -10z
m2300 0 c3 -5 1 -10 -4 -10 -6 0 -11 5 -11 10 0 6 2 10 4 10 3 0 8 -4 11 -10z
m325 -10 c-20 -13 -43 -13 -35 0 3 6 16 10 28 10 18 0 19 -2 7 -10z m-4183 -6
c-3 -3 -12 -4 -19 -1 -8 3 -5 6 6 6 11 1 17 -2 13 -5z m3938 -4 c3 -6 -1 -7
-9 -4 -18 7 -21 14 -7 14 6 0 13 -4 16 -10z m655 -26 c0 -8 -4 -14 -9 -14 -12
0 -32 26 -25 33 10 9 34 -4 34 -19z m-2135 6 c3 -5 2 -10 -4 -10 -5 0 -13 5
-16 10 -3 6 -2 10 4 10 5 0 13 -4 16 -10z m-1125 -16 c0 -8 -4 -12 -10 -9 -5
3 -10 10 -10 16 0 5 5 9 10 9 6 0 10 -7 10 -16z m635 6 c3 -5 1 -10 -4 -10 -6
0 -11 5 -11 10 0 6 2 10 4 10 3 0 8 -4 11 -10z m175 0 c0 -5 -4 -10 -10 -10
-5 0 -10 5 -10 10 0 6 5 10 10 10 6 0 10 -4 10 -10z m2495 -20 c3 -5 2 -10 -4
-10 -5 0 -13 5 -16 10 -3 6 -2 10 4 10 5 0 13 -4 16 -10z m-2775 -16 c0 -2 -7
-4 -15 -4 -8 0 -15 4 -15 10 0 5 7 7 15 4 8 -4 15 -8 15 -10z m610 12 c0 -3
-4 -8 -10 -11 -5 -3 -10 -1 -10 4 0 6 5 11 10 11 6 0 10 -2 10 -4z m2840 -6
c0 -5 -4 -10 -10 -10 -5 0 -10 5 -10 10 0 6 5 10 10 10 6 0 10 -4 10 -10z
m-1841 -16 c2 -2 2 -6 0 -9 -8 -7 -49 7 -49 17 0 8 38 2 49 -8z m809 -10 c7
-9 8 -10 0 -4 -7 6 -22 10 -35 10 -13 0 -23 5 -23 11 0 13 41 2 58 -17z m1057
16 c3 -5 1 -10 -4 -10 -6 0 -11 5 -11 10 0 6 2 10 4 10 3 0 8 -4 11 -10z
m-1788 -30 c13 -17 29 -28 34 -24 5 3 9 -2 9 -10 0 -9 -4 -16 -10 -16 -5 0
-10 5 -10 10 0 6 -15 10 -34 10 -41 0 -51 12 -36 40 14 26 17 26 47 -10z
m1693 -10 c0 -5 -2 -10 -4 -10 -3 0 -8 5 -11 10 -3 6 -1 10 4 10 6 0 11 -4 11
-10z m-2061 -14 c9 -11 8 -15 -4 -20 -9 -3 -13 -2 -10 4 3 6 1 10 -4 10 -6 0
-11 5 -11 10 0 14 16 12 29 -4z m271 4 c0 -5 -2 -10 -4 -10 -3 0 -8 5 -11 10
-3 6 -1 10 4 10 6 0 11 -4 11 -10z m-2844 -27 c-10 -10 -19 5 -10 18 6 11 8
11 12 0 2 -7 1 -15 -2 -18z m3966 15 c-9 -9 -15 -9 -24 0 -9 9 -7 12 12 12 19
0 21 -3 12 -12z m353 2 c3 -5 2 -10 -4 -10 -5 0 -13 5 -16 10 -3 6 -2 10 4 10
5 0 13 -4 16 -10z m-1098 -6 c-3 -3 -12 -4 -19 -1 -8 3 -5 6 6 6 11 1 17 -2
13 -5z m593 -14 c0 -5 -2 -10 -4 -10 -3 0 -8 5 -11 10 -3 6 -1 10 4 10 6 0 11
-4 11 -10z m-5880 -10 c0 -5 -2 -10 -4 -10 -3 0 -8 5 -11 10 -3 6 -1 10 4 10
6 0 11 -4 11 -10z m4930 1 c0 -5 -7 -12 -16 -15 -14 -5 -15 -4 -4 9 14 17 20
19 20 6z m660 -1 c0 -5 -2 -10 -4 -10 -3 0 -8 5 -11 10 -3 6 -1 10 4 10 6 0
11 -4 11 -10z m-3050 -20 c0 -5 -2 -10 -4 -10 -3 0 -8 5 -11 10 -3 6 -1 10 4
10 6 0 11 -4 11 -10z m3128 -8 c2 -7 -7 -12 -22 -12 -27 0 -35 15 -13 23 17 7
30 3 35 -11z m1089 12 c-3 -3 -12 -4 -19 -1 -8 3 -5 6 6 6 11 1 17 -2 13 -5z
m-5657 -25 c0 -6 -4 -7 -10 -4 -5 3 -10 11 -10 16 0 6 5 7 10 4 6 -3 10 -11
10 -16z m4067 15 c-3 -3 -12 -4 -19 -1 -8 3 -5 6 6 6 11 1 17 -2 13 -5z m88
-24 c-3 -4 10 -10 28 -13 17 -2 35 0 38 5 4 7 9 6 13 0 11 -18 -10 -22 -64
-12 -29 6 -54 10 -56 10 -2 0 -4 5 -4 10 0 6 7 10 16 10 9 0 12 5 8 13 -5 8
-3 8 9 -2 9 -7 15 -17 12 -21z m-244 6 c5 3 9 0 9 -6 0 -7 -7 -9 -16 -6 -9 3
-18 6 -20 6 -3 0 -2 5 2 12 6 9 9 9 12 0 2 -7 8 -10 13 -6z m839 4 c0 -5 -2
-10 -4 -10 -3 0 -8 5 -11 10 -3 6 -1 10 4 10 6 0 11 -4 11 -10z m713 -8 c-6
-15 -75 -11 -80 5 -3 8 9 12 40 10 31 -1 43 -6 40 -15z m-1454 -5 c17 -7 28
-16 25 -20 -4 -4 -13 -2 -20 3 -6 6 -16 10 -20 9 -19 -3 -34 2 -34 11 0 13 12
13 49 -3z m1341 9 c0 -2 -7 -6 -15 -10 -8 -3 -15 -1 -15 4 0 6 7 10 15 10 8 0
15 -2 15 -4z m-790 -30 c0 -3 -4 -8 -10 -11 -5 -3 -10 -1 -10 4 0 6 5 11 10
11 6 0 10 -2 10 -4z m-476 -25 c-10 -10 -25 -16 -33 -13 -9 4 -6 9 10 18 35
19 46 17 23 -5z m66 -1 c0 -5 -4 -10 -9 -10 -6 0 -13 5 -16 10 -3 6 1 10 9 10
9 0 16 -4 16 -10z m38 -2 c17 -17 15 -27 -5 -24 -10 2 -19 10 -21 19 -4 20 9
22 26 5z m-798 -3 c0 -2 -10 -9 -22 -15 -22 -11 -22 -10 -4 4 21 17 26 19 26
11z m-1505 -15 c-28 -12 -37 -12 -30 0 3 6 16 10 28 9 21 0 21 -1 2 -9z m2060
-10 c7 -12 -2 -12 -30 0 -19 8 -19 9 2 9 12 1 25 -3 28 -9z m305 -6 c0 -2 -7
-4 -15 -4 -8 0 -15 4 -15 10 0 5 7 7 15 4 8 -4 15 -8 15 -10z m330 6 c0 -5 -5
-10 -11 -10 -5 0 -7 5 -4 10 3 6 8 10 11 10 2 0 4 -4 4 -10z m50 0 c0 -5 -4
-10 -9 -10 -6 0 -13 5 -16 10 -3 6 1 10 9 10 9 0 16 -4 16 -10z m660 0 c0 -5
-4 -10 -10 -10 -5 0 -10 5 -10 10 0 6 5 10 10 10 6 0 10 -4 10 -10z m-2015
-10 c3 -5 1 -10 -4 -10 -6 0 -11 5 -11 10 0 6 2 10 4 10 3 0 8 -4 11 -10z
m1015 0 c0 -5 -4 -10 -9 -10 -6 0 -13 5 -16 10 -3 6 1 10 9 10 9 0 16 -4 16
-10z m374 -6 c5 -14 4 -15 -9 -4 -17 14 -19 20 -6 20 5 0 12 -7 15 -16z m579
9 c-7 -2 -19 -2 -25 0 -7 3 -2 5 12 5 14 0 19 -2 13 -5z m261 -2 c3 -5 -6 -8
-20 -8 -19 0 -22 2 -13 8 18 11 26 11 33 0z m-1339 -11 c3 -5 1 -10 -4 -10 -6
0 -11 5 -11 10 0 6 2 10 4 10 3 0 8 -4 11 -10z m70 -20 c3 -4 -6 -7 -20 -6
-14 0 -25 6 -25 13 0 12 37 6 45 -7z m-3304 -16 c8 -8 21 -14 27 -14 7 0 12
-4 12 -10 0 -16 -15 -12 -40 10 -13 11 -29 20 -36 20 -7 0 -16 5 -20 11 -9 15
36 1 57 -17z m2134 16 c3 -5 1 -10 -4 -10 -6 0 -11 5 -11 10 0 6 2 10 4 10 3
0 8 -4 11 -10z m-4114 -30 c10 0 19 -4 19 -8 0 -5 -13 -9 -30 -9 -32 0 -34 4
-23 34 7 17 8 17 11 1 2 -10 12 -18 23 -18z m3844 20 c-3 -5 -12 -10 -18 -10
-7 0 -6 4 3 10 19 12 23 12 15 0z m1592 -5 c8 -22 2 -24 -27 -13 -20 7 -22 11
-10 18 21 14 30 12 37 -5z m-5357 -20 c-7 -8 -16 -15 -21 -15 -5 0 -9 7 -9 15
0 9 9 15 21 15 18 0 19 -2 9 -15z m597 9 c-3 -3 -12 -4 -19 -1 -8 3 -5 6 6 6
11 1 17 -2 13 -5z m1263 -4 c0 -5 -4 -10 -10 -10 -5 0 -10 5 -10 10 0 6 5 10
10 10 6 0 10 -4 10 -10z m3558 1 c9 -5 25 -12 35 -15 9 -3 17 -10 17 -15 0
-13 -33 -8 -46 8 -6 8 -16 11 -22 7 -7 -4 -12 -1 -12 8 0 18 4 19 28 7z
m-5573 -18 c18 -14 18 -15 2 -9 -10 3 -25 6 -33 6 -8 0 -14 5 -14 10 0 15 22
12 45 -7z m3795 3 c0 -9 -7 -12 -21 -9 -16 4 -17 8 -7 14 19 13 28 11 28 -5z
m-920 -5 c0 -6 -4 -13 -10 -16 -5 -3 -10 1 -10 9 0 9 5 16 10 16 6 0 10 -4 10
-9z m3560 5 c0 -11 -19 -15 -25 -6 -3 5 1 10 9 10 9 0 16 -2 16 -4z m-4220
-10 c0 -11 -19 -15 -25 -6 -3 5 1 10 9 10 9 0 16 -2 16 -4z m30 -6 c0 -5 -2
-10 -4 -10 -3 0 -8 5 -11 10 -3 6 -1 10 4 10 6 0 11 -4 11 -10z m2661 -3 c-1
-12 -15 -9 -19 4 -3 6 1 10 8 8 6 -3 11 -8 11 -12z m1176 -13 c-7 -7 -37 7
-37 17 0 6 9 5 21 -1 11 -7 19 -14 16 -16z m-5367 -4 c0 -5 -2 -10 -4 -10 -3
0 -8 5 -11 10 -3 6 -1 10 4 10 6 0 11 -4 11 -10z m5580 6 c0 -3 -4 -8 -10 -11
-5 -3 -10 -1 -10 4 0 6 5 11 10 11 6 0 10 -2 10 -4z m130 0 c0 -3 -4 -8 -10
-11 -5 -3 -10 -1 -10 4 0 6 5 11 10 11 6 0 10 -2 10 -4z m-507 -21 c-3 -9 -8
-14 -10 -11 -3 3 -2 9 2 15 9 16 15 13 8 -4z m647 -5 c-20 -13 -40 -13 -40 0
0 6 12 10 28 10 21 0 24 -2 12 -10z m-5780 -35 c-14 -7 -27 -11 -30 -9 -6 7
22 24 40 23 9 0 5 -6 -10 -14z m5255 -5 c3 -6 -1 -7 -9 -4 -18 7 -21 14 -7 14
6 0 13 -4 16 -10z m-2175 -10 c0 -5 -4 -10 -10 -10 -5 0 -10 5 -10 10 0 6 5
10 10 10 6 0 10 -4 10 -10z m2480 0 c0 -5 -2 -10 -4 -10 -3 0 -8 5 -11 10 -3
6 -1 10 4 10 6 0 11 -4 11 -10z m-5622 -19 c3 -8 -1 -12 -9 -9 -7 2 -15 10
-17 17 -3 8 1 12 9 9 7 -2 15 -10 17 -17z m3747 9 c3 -5 1 -10 -4 -10 -6 0
-11 5 -11 10 0 6 2 10 4 10 3 0 8 -4 11 -10z m2145 -10 c0 -5 -5 -10 -11 -10
-5 0 -7 5 -4 10 3 6 8 10 11 10 2 0 4 -4 4 -10z m-6225 -10 c3 -5 1 -10 -4
-10 -6 0 -11 5 -11 10 0 6 2 10 4 10 3 0 8 -4 11 -10z m188 -16 c-8 -21 -23
-17 -23 6 0 13 5 18 14 14 8 -3 12 -12 9 -20z m47 16 c0 -5 -4 -10 -9 -10 -6
0 -13 5 -16 10 -3 6 1 10 9 10 9 0 16 -4 16 -10z"/>
<path d="M5360 5200 c0 -5 5 -10 11 -10 5 0 7 5 4 10 -3 6 -8 10 -11 10 -2 0
-4 -4 -4 -10z"/>
<path d="M5910 4090 c0 -13 18 -22 24 -11 3 5 -1 11 -9 15 -8 3 -15 1 -15 -4z"/>
<path d="M1990 1510 c0 -5 5 -10 10 -10 6 0 10 5 10 10 0 6 -4 10 -10 10 -5 0
-10 -4 -10 -10z"/>
<path d="M2475 1011 c-6 -11 9 -23 19 -14 9 9 7 23 -3 23 -6 0 -12 -4 -16 -9z"/>
<path d="M1540 960 c0 -5 5 -10 10 -10 6 0 10 5 10 10 0 6 -4 10 -10 10 -5 0
-10 -4 -10 -10z"/>
<path d="M4405 830 c4 -6 11 -8 16 -5 14 9 11 15 -7 15 -8 0 -12 -5 -9 -10z"/>
<path d="M6431 6754 c0 -11 3 -14 6 -6 3 7 2 16 -1 19 -3 4 -6 -2 -5 -13z"/>
<path d="M6576 6745 c4 -8 11 -15 16 -15 6 0 5 6 -2 15 -7 8 -14 15 -16 15 -2
0 -1 -7 2 -15z"/>
<path d="M6405 6710 c3 -5 8 -10 11 -10 2 0 4 5 4 10 0 6 -5 10 -11 10 -5 0
-7 -4 -4 -10z"/>
<path d="M6246 6595 c4 -8 8 -15 10 -15 2 0 4 7 4 15 0 8 -4 15 -10 15 -5 0
-7 -7 -4 -15z"/>
<path d="M6002 6465 c1 -19 5 -35 8 -35 4 0 7 16 8 35 1 19 -3 35 -9 35 -5 0
-9 -16 -7 -35z"/>
<path d="M6050 6460 c0 -5 5 -10 11 -10 5 0 7 5 4 10 -3 6 -8 10 -11 10 -2 0
-4 -4 -4 -10z"/>
<path d="M555 5890 c-3 -5 1 -10 10 -10 9 0 13 5 10 10 -3 6 -8 10 -10 10 -2
0 -7 -4 -10 -10z"/>
<path d="M430 5580 c0 -5 5 -10 10 -10 6 0 10 5 10 10 0 6 -4 10 -10 10 -5 0
-10 -4 -10 -10z"/>
<path d="M430 5546 c0 -2 7 -6 15 -10 8 -3 15 -1 15 4 0 6 -7 10 -15 10 -8 0
-15 -2 -15 -4z"/>
<path d="M850 5470 c0 -5 7 -10 15 -10 8 0 15 5 15 10 0 6 -7 10 -15 10 -8 0
-15 -4 -15 -10z"/>
<path d="M360 5430 c0 -5 5 -10 11 -10 5 0 7 5 4 10 -3 6 -8 10 -11 10 -2 0
-4 -4 -4 -10z"/>
<path d="M830 5310 c0 -5 5 -10 11 -10 5 0 7 5 4 10 -3 6 -8 10 -11 10 -2 0
-4 -4 -4 -10z"/>
<path d="M991 5304 c-7 -8 -11 -18 -7 -21 9 -10 36 6 36 22 0 19 -11 19 -29
-1z"/>
<path d="M3436 5005 c-6 -29 -10 -35 -17 -24 -8 12 -10 12 -19 -1 -5 -8 -10
-22 -10 -30 0 -10 -7 -7 -20 10 -17 21 -20 22 -20 7 0 -11 -8 -35 -17 -54 -14
-31 -18 -33 -28 -19 -7 8 -15 13 -18 9 -4 -3 -13 0 -22 7 -13 10 -15 9 -15 -9
0 -12 -10 -37 -22 -55 l-22 -34 -22 29 -22 30 -16 -47 c-13 -38 -13 -50 -3
-62 8 -11 8 -14 0 -9 -6 4 -14 3 -18 -3 -9 -14 7 -13 147 10 68 10 138 20 157
22 l34 3 24 105 c13 57 21 109 19 115 -2 5 -5 2 -5 -7 -1 -24 -28 -12 -45 20
l-13 25 -7 -38z"/>
<path d="M1212 5018 c2 -6 10 -14 16 -16 7 -2 10 2 6 12 -7 18 -28 22 -22 4z"/>
<path d="M1576 4883 c-11 -11 -6 -23 9 -23 8 0 15 4 15 9 0 13 -16 22 -24 14z"/>
<path d="M1700 4750 c0 -5 7 -10 15 -10 8 0 15 5 15 10 0 6 -7 10 -15 10 -8 0
-15 -4 -15 -10z"/>
<path d="M1346 4742 c-2 -4 -1 -14 5 -22 7 -12 9 -10 9 8 0 23 -5 28 -14 14z"/>
<path d="M3383 4497 c3 -7 0 -20 -7 -28 -13 -18 -76 -31 -76 -15 0 6 -5 5 -12
-2 -10 -10 -7 -16 10 -28 22 -15 22 -17 5 -30 -10 -7 -13 -14 -7 -14 7 0 14
-11 17 -25 3 -21 -1 -29 -23 -40 -29 -15 -40 -11 -40 13 0 12 3 12 18 1 16
-13 16 -13 0 7 -13 15 -15 23 -6 32 8 8 6 10 -9 6 -26 -7 -37 10 -18 26 8 7
15 16 15 20 0 12 -41 4 -52 -11 -8 -11 -9 -11 -4 4 7 23 -6 22 -27 -3 -16 -19
-16 -20 1 -22 9 0 23 -1 30 -1 7 1 19 -12 28 -28 14 -28 3 -42 -13 -15 -8 13
-45 36 -59 36 -3 0 -2 -6 3 -12 6 -7 13 -22 17 -32 7 -19 6 -19 -13 -2 -11 10
-18 26 -16 35 5 27 -7 39 -45 44 -27 5 -51 -3 -115 -35 -44 -22 -82 -43 -85
-47 -3 -3 -22 -14 -42 -25 -20 -10 -52 -33 -71 -50 -20 -17 -43 -36 -54 -43
-10 -6 -17 -16 -15 -22 1 -6 -5 -11 -13 -11 -16 0 -20 -16 -6 -24 5 -3 11 -17
14 -31 l4 -26 -21 20 c-31 29 -39 27 -78 -21 -132 -163 -216 -360 -259 -607
-29 -164 -36 -454 -15 -582 45 -277 186 -496 377 -587 71 -34 195 -70 206 -59
1 2 75 347 163 768 89 420 185 879 215 1019 73 346 74 348 53 342 -5 -1 -7 2
-3 8 3 6 11 7 17 4 7 -5 9 -1 5 9 -3 9 -2 17 2 19 14 5 23 78 10 78 -6 0 -9
-6 -6 -13z m-273 -157 c0 -5 7 -10 15 -10 8 0 15 -4 15 -9 0 -14 -38 -1 -44
15 -3 8 -1 14 4 14 6 0 10 -4 10 -10z m-149 -38 c-7 -2 -18 1 -23 6 -8 8 -4 9
13 5 13 -4 18 -8 10 -11z m224 -22 c3 -5 1 -10 -4 -10 -6 0 -11 5 -11 10 0 6
2 10 4 10 3 0 8 -4 11 -10z m76 -14 c-10 -11 -8 -17 6 -26 15 -9 15 -11 1 -6
-9 3 -19 -2 -22 -11 -6 -14 -9 -14 -26 2 -11 10 -20 23 -20 28 0 6 10 2 22 -9
17 -16 20 -16 15 -3 -3 9 0 22 6 28 16 16 32 14 18 -3z m-116 -16 c3 -5 1 -10
-4 -10 -6 0 -11 5 -11 10 0 6 2 10 4 10 3 0 8 -4 11 -10z m-259 -20 c0 -11 -5
-19 -10 -17 -14 5 -16 37 -2 37 6 0 12 -9 12 -20z m74 -31 c0 -11 -49 15 -55
29 -3 9 5 7 25 -5 17 -9 30 -20 30 -24z m264 -10 c5 -5 7 -11 4 -15 -6 -6 -68
23 -68 31 0 8 53 -6 64 -16z m-219 1 c8 -13 -5 -13 -25 0 -13 8 -13 10 2 10 9
0 20 -4 23 -10z m-95 -22 c0 -13 -23 -5 -28 10 -2 7 2 10 12 6 9 -3 16 -11 16
-16z m301 -15 c13 -16 12 -17 -3 -4 -17 13 -22 21 -14 21 2 0 10 -8 17 -17z
m-31 -3 c0 -5 -5 -10 -11 -10 -5 0 -7 5 -4 10 3 6 8 10 11 10 2 0 4 -4 4 -10z
m-400 -24 c0 -17 -14 -29 -23 -20 -8 8 3 34 14 34 5 0 9 -6 9 -14z m42 -11 c4
-17 1 -25 -8 -25 -8 0 -14 11 -14 25 0 14 4 25 9 25 5 0 11 -11 13 -25z m338
5 c0 -5 -7 -10 -16 -10 -8 0 -12 5 -9 10 3 6 10 10 16 10 5 0 9 -4 9 -10z
m-468 -26 c16 -6 34 -51 24 -61 -3 -3 -8 6 -12 21 -4 16 -13 26 -24 26 -10 0
-21 7 -24 16 -4 10 -2 14 6 10 7 -3 20 -9 30 -12z m73 -14 c-4 -7 3 -9 22 -5
15 3 23 3 16 -1 -7 -3 -10 -11 -7 -18 6 -15 -28 -27 -44 -17 -10 6 2 51 13 51
4 0 3 -5 0 -10z m78 -50 c-3 -11 -7 -20 -9 -20 -2 0 -4 9 -4 20 0 11 4 20 9
20 5 0 7 -9 4 -20z m-172 -26 l24 -27 -33 17 c-18 9 -30 21 -27 26 8 13 8 13
36 -16z m69 6 c-19 -12 -40 -13 -40 -1 0 9 40 20 50 13 2 -2 -2 -7 -10 -12z
m5 -30 c-3 -5 -12 -7 -20 -3 -21 7 -19 13 6 13 11 0 18 -4 14 -10z m25 -34 c0
-3 -4 -8 -10 -11 -5 -3 -10 -1 -10 4 0 6 5 11 10 11 6 0 10 -2 10 -4z m60 -6
c0 -5 -5 -10 -11 -10 -5 0 -7 5 -4 10 3 6 8 10 11 10 2 0 4 -4 4 -10z"/>
<path d="M4167 4428 c-9 -46 -41 -200 -72 -343 -31 -143 -54 -268 -51 -278 2
-9 1 -15 -3 -13 -3 2 -35 -129 -70 -292 -34 -164 -106 -495 -158 -737 -52
-242 -97 -455 -100 -474 l-6 -34 89 8 c246 20 439 117 626 313 239 252 382
599 414 1005 6 76 4 87 -10 87 -9 0 -16 5 -16 10 0 6 7 10 15 10 12 0 13 13 9
68 -7 87 -12 112 -24 112 -5 0 -7 -6 -4 -14 3 -9 -4 -20 -18 -27 -21 -11 -22
-11 -10 4 8 9 11 20 8 26 -3 5 -3 16 0 25 5 13 9 14 20 5 12 -9 13 -6 8 22 -8
39 -14 50 -14 26 0 -9 -4 -17 -10 -17 -5 0 -10 -8 -10 -17 0 -13 -3 -14 -12
-5 -17 17 -20 54 -6 65 9 6 8 7 -4 4 -9 -3 -19 1 -22 10 -9 21 2 33 29 33 22
0 23 2 13 30 -5 17 -15 33 -21 37 -5 3 -7 1 -3 -5 3 -6 2 -14 -4 -17 -8 -5 -7
-11 1 -21 7 -9 8 -14 1 -14 -6 0 -17 8 -24 19 -7 10 -17 20 -23 22 -11 4 -11
15 0 42 4 10 3 17 -4 17 -7 0 -14 -7 -17 -15 -8 -21 -24 -19 -24 3 0 15 -2 15
-11 2 -8 -12 -9 -9 -5 12 3 15 2 30 -4 33 -5 3 -10 1 -10 -4 0 -7 -7 -7 -20 1
-20 13 -20 13 1 20 16 6 20 14 16 29 -3 12 0 28 9 36 13 13 18 10 16 -8 -1 -4
8 -9 18 -12 19 -5 19 -4 -1 25 -12 16 -31 33 -44 38 -12 5 -25 16 -28 24 -4 9
-18 16 -32 16 -14 0 -25 5 -25 10 0 6 8 10 18 10 15 1 14 2 -3 12 -11 6 -22
14 -25 18 -6 9 -88 60 -95 60 -3 0 -5 -8 -6 -17 -1 -12 -4 -9 -8 7 -6 21 -22
30 -101 57 -137 47 -133 49 -153 -49z m408 -128 c3 -5 1 -10 -4 -10 -6 0 -11
5 -11 10 0 6 2 10 4 10 3 0 8 -4 11 -10z m-118 -175 c-2 -36 -10 -44 -23 -24
-3 6 -1 15 7 19 10 7 10 11 0 24 -11 13 -11 16 3 16 12 0 15 -8 13 -35z m99
-6 c5 1 10 -3 10 -9 1 -5 2 -13 3 -17 0 -3 10 2 21 12 11 10 22 16 25 13 8 -8
-6 -38 -17 -38 -5 0 -6 -9 -3 -20 4 -12 2 -20 -5 -20 -12 0 -11 -66 2 -92 7
-14 4 -18 -12 -18 -24 0 -25 -13 -3 -51 19 -32 12 -49 -12 -29 -20 16 -32 5
-16 -14 17 -20 4 -38 -21 -30 -18 5 -20 3 -13 -12 4 -11 10 -27 12 -36 3 -10
14 -18 24 -18 12 0 19 -7 19 -20 0 -25 -1 -25 -46 0 -44 25 -51 22 -24 -13 32
-40 24 -89 -13 -79 l-22 5 22 -24 c22 -24 22 -25 3 -37 -19 -11 -22 -43 -7
-58 12 -12 8 -24 -8 -24 -8 0 -15 5 -15 10 0 6 -6 10 -14 10 -23 0 -29 19 -9
28 25 10 30 81 5 83 -16 1 -16 2 1 6 9 2 17 7 17 10 0 3 -8 12 -17 20 -13 10
-15 16 -5 19 6 3 12 12 12 20 0 8 5 14 12 14 9 0 9 3 0 12 -10 10 -19 8 -42
-5 -19 -12 -30 -14 -30 -6 0 6 -9 1 -20 -12 -19 -24 -19 -24 0 16 21 42 13 58
-17 33 -15 -12 -15 -11 -2 10 8 12 19 20 25 18 7 -3 10 4 7 17 -3 13 -1 18 4
11 4 -6 16 -8 26 -5 21 8 23 25 4 27 -6 0 -20 2 -29 2 -10 1 -18 7 -18 13 0 5
5 7 12 3 7 -5 9 -2 5 9 -4 12 -2 14 10 10 13 -5 15 0 8 33 -4 21 -11 42 -17
45 -5 3 2 13 16 23 18 11 26 25 26 46 0 17 5 30 13 30 6 0 4 5 -6 11 -26 15
-11 30 25 24 16 -3 36 -1 44 6 7 6 18 8 23 5 5 -4 12 -2 15 3 4 5 -3 12 -14
16 -11 3 -20 10 -20 15 0 12 24 18 31 8 3 -5 10 -9 15 -9z m-236 -50 c0 -6 -4
-7 -10 -4 -5 3 -10 11 -10 16 0 6 5 7 10 4 6 -3 10 -11 10 -16z m0 -33 c0 -3
-4 -8 -10 -11 -5 -3 -10 -1 -10 4 0 6 5 11 10 11 6 0 10 -2 10 -4z m-82 -18
c-2 -6 -10 -14 -16 -16 -7 -2 -10 2 -6 12 7 18 28 22 22 4z m167 -8 c3 -5 1
-10 -4 -10 -6 0 -11 5 -11 10 0 6 2 10 4 10 3 0 8 -4 11 -10z m-69 -12 c4 -7
3 -10 -1 -5 -5 4 -17 -1 -28 -10 -19 -17 -20 -17 -8 5 13 25 26 28 37 10z m14
-99 c0 -5 -4 -9 -10 -9 -5 0 -10 7 -10 16 0 8 5 12 10 9 6 -3 10 -10 10 -16z
m240 -99 c0 -5 -2 -10 -4 -10 -3 0 -8 5 -11 10 -3 6 -1 10 4 10 6 0 11 -4 11
-10z m-255 -10 c-3 -5 -12 -10 -18 -10 -7 0 -6 4 3 10 19 12 23 12 15 0z m76
-113 c-10 -9 -11 -8 -5 6 3 10 9 15 12 12 3 -3 0 -11 -7 -18z m-294 -139 c-3
-8 -6 -5 -6 6 -1 11 2 17 5 13 3 -3 4 -12 1 -19z m447 -4 c5 -14 4 -15 -9 -4
-17 14 -19 20 -6 20 5 0 12 -7 15 -16z m-114 -52 c0 -2 -7 -11 -16 -20 -15
-14 -17 -14 -26 2 -9 17 -11 17 -29 0 -20 -18 -27 -6 -8 13 10 10 79 14 79 5z"/>
<path d="M4440 3864 c0 -8 6 -11 15 -8 8 4 15 9 15 13 0 4 -7 8 -15 8 -8 0
-15 -6 -15 -13z"/>
<path d="M4417 3774 c-4 -4 -7 -14 -7 -23 0 -11 3 -12 11 -4 6 6 10 16 7 23
-2 6 -7 8 -11 4z"/>
<path d="M3275 4480 c-3 -5 -13 -6 -22 -3 -15 6 -16 5 -3 -9 8 -9 17 -12 20
-8 3 5 22 7 42 5 23 -2 38 1 41 10 6 15 -69 20 -78 5z"/>
<path d="M3198 4453 c6 -2 18 -2 25 0 6 3 1 5 -13 5 -14 0 -19 -2 -12 -5z"/>
<path d="M3140 4430 c0 -5 5 -10 10 -10 6 0 10 5 10 10 0 6 -4 10 -10 10 -5 0
-10 -4 -10 -10z"/>
<path d="M4650 4196 c0 -2 6 -9 14 -15 10 -9 15 -8 20 4 4 10 -1 15 -14 15
-11 0 -20 -2 -20 -4z"/>
<path d="M4700 4183 c0 -19 11 -43 21 -43 13 0 11 14 -6 36 -8 10 -15 14 -15
7z"/>
<path d="M4660 4145 c0 -8 2 -15 4 -15 2 0 6 7 10 15 3 8 1 15 -4 15 -6 0 -10
-7 -10 -15z"/>
<path d="M4785 3980 c3 -5 8 -10 11 -10 2 0 4 5 4 10 0 6 -5 10 -11 10 -5 0
-7 -4 -4 -10z"/>
</g>
</svg>
